%TF.GenerationSoftware,KiCad,Pcbnew,7.0.6-0*%
%TF.CreationDate,2023-08-07T16:34:56-06:00*%
%TF.ProjectId,VibeLight,56696265-4c69-4676-9874-2e6b69636164,rev?*%
%TF.SameCoordinates,Original*%
%TF.FileFunction,Legend,Top*%
%TF.FilePolarity,Positive*%
%FSLAX46Y46*%
G04 Gerber Fmt 4.6, Leading zero omitted, Abs format (unit mm)*
G04 Created by KiCad (PCBNEW 7.0.6-0) date 2023-08-07 16:34:56*
%MOMM*%
%LPD*%
G01*
G04 APERTURE LIST*
%ADD10C,0.080000*%
%ADD11C,0.120000*%
%ADD12C,0.020000*%
%ADD13C,0.127000*%
G04 APERTURE END LIST*
D10*
X41342857Y-47980887D02*
X41209524Y-47790411D01*
X41114286Y-47980887D02*
X41114286Y-47580887D01*
X41114286Y-47580887D02*
X41266667Y-47580887D01*
X41266667Y-47580887D02*
X41304762Y-47599935D01*
X41304762Y-47599935D02*
X41323809Y-47618982D01*
X41323809Y-47618982D02*
X41342857Y-47657078D01*
X41342857Y-47657078D02*
X41342857Y-47714220D01*
X41342857Y-47714220D02*
X41323809Y-47752316D01*
X41323809Y-47752316D02*
X41304762Y-47771363D01*
X41304762Y-47771363D02*
X41266667Y-47790411D01*
X41266667Y-47790411D02*
X41114286Y-47790411D01*
X41723809Y-47980887D02*
X41495238Y-47980887D01*
X41609524Y-47980887D02*
X41609524Y-47580887D01*
X41609524Y-47580887D02*
X41571428Y-47638030D01*
X41571428Y-47638030D02*
X41533333Y-47676125D01*
X41533333Y-47676125D02*
X41495238Y-47695173D01*
X41876190Y-47618982D02*
X41895238Y-47599935D01*
X41895238Y-47599935D02*
X41933333Y-47580887D01*
X41933333Y-47580887D02*
X42028571Y-47580887D01*
X42028571Y-47580887D02*
X42066666Y-47599935D01*
X42066666Y-47599935D02*
X42085714Y-47618982D01*
X42085714Y-47618982D02*
X42104761Y-47657078D01*
X42104761Y-47657078D02*
X42104761Y-47695173D01*
X42104761Y-47695173D02*
X42085714Y-47752316D01*
X42085714Y-47752316D02*
X41857142Y-47980887D01*
X41857142Y-47980887D02*
X42104761Y-47980887D01*
X43984292Y-29335713D02*
X43984292Y-29097618D01*
X44127149Y-29383332D02*
X43627149Y-29216666D01*
X43627149Y-29216666D02*
X44127149Y-29049999D01*
X44079530Y-28597619D02*
X44103340Y-28621428D01*
X44103340Y-28621428D02*
X44127149Y-28692857D01*
X44127149Y-28692857D02*
X44127149Y-28740476D01*
X44127149Y-28740476D02*
X44103340Y-28811904D01*
X44103340Y-28811904D02*
X44055720Y-28859523D01*
X44055720Y-28859523D02*
X44008101Y-28883333D01*
X44008101Y-28883333D02*
X43912863Y-28907142D01*
X43912863Y-28907142D02*
X43841435Y-28907142D01*
X43841435Y-28907142D02*
X43746197Y-28883333D01*
X43746197Y-28883333D02*
X43698578Y-28859523D01*
X43698578Y-28859523D02*
X43650959Y-28811904D01*
X43650959Y-28811904D02*
X43627149Y-28740476D01*
X43627149Y-28740476D02*
X43627149Y-28692857D01*
X43627149Y-28692857D02*
X43650959Y-28621428D01*
X43650959Y-28621428D02*
X43674768Y-28597619D01*
X44079530Y-28097619D02*
X44103340Y-28121428D01*
X44103340Y-28121428D02*
X44127149Y-28192857D01*
X44127149Y-28192857D02*
X44127149Y-28240476D01*
X44127149Y-28240476D02*
X44103340Y-28311904D01*
X44103340Y-28311904D02*
X44055720Y-28359523D01*
X44055720Y-28359523D02*
X44008101Y-28383333D01*
X44008101Y-28383333D02*
X43912863Y-28407142D01*
X43912863Y-28407142D02*
X43841435Y-28407142D01*
X43841435Y-28407142D02*
X43746197Y-28383333D01*
X43746197Y-28383333D02*
X43698578Y-28359523D01*
X43698578Y-28359523D02*
X43650959Y-28311904D01*
X43650959Y-28311904D02*
X43627149Y-28240476D01*
X43627149Y-28240476D02*
X43627149Y-28192857D01*
X43627149Y-28192857D02*
X43650959Y-28121428D01*
X43650959Y-28121428D02*
X43674768Y-28097619D01*
X43865244Y-27883333D02*
X43865244Y-27716666D01*
X44127149Y-27645238D02*
X44127149Y-27883333D01*
X44127149Y-27883333D02*
X43627149Y-27883333D01*
X43627149Y-27883333D02*
X43627149Y-27645238D01*
X44127149Y-27192857D02*
X44127149Y-27430952D01*
X44127149Y-27430952D02*
X43627149Y-27430952D01*
X44127149Y-26764285D02*
X44127149Y-27049999D01*
X44127149Y-26907142D02*
X43627149Y-26907142D01*
X43627149Y-26907142D02*
X43698578Y-26954761D01*
X43698578Y-26954761D02*
X43746197Y-27002380D01*
X43746197Y-27002380D02*
X43770006Y-27049999D01*
X18095238Y-46727149D02*
X18095238Y-46227149D01*
X18095238Y-46227149D02*
X18285714Y-46227149D01*
X18285714Y-46227149D02*
X18333333Y-46250959D01*
X18333333Y-46250959D02*
X18357143Y-46274768D01*
X18357143Y-46274768D02*
X18380952Y-46322387D01*
X18380952Y-46322387D02*
X18380952Y-46393816D01*
X18380952Y-46393816D02*
X18357143Y-46441435D01*
X18357143Y-46441435D02*
X18333333Y-46465244D01*
X18333333Y-46465244D02*
X18285714Y-46489054D01*
X18285714Y-46489054D02*
X18095238Y-46489054D01*
X18547619Y-46227149D02*
X18666667Y-46727149D01*
X18666667Y-46727149D02*
X18761905Y-46370006D01*
X18761905Y-46370006D02*
X18857143Y-46727149D01*
X18857143Y-46727149D02*
X18976191Y-46227149D01*
X19452381Y-46727149D02*
X19285715Y-46489054D01*
X19166667Y-46727149D02*
X19166667Y-46227149D01*
X19166667Y-46227149D02*
X19357143Y-46227149D01*
X19357143Y-46227149D02*
X19404762Y-46250959D01*
X19404762Y-46250959D02*
X19428572Y-46274768D01*
X19428572Y-46274768D02*
X19452381Y-46322387D01*
X19452381Y-46322387D02*
X19452381Y-46393816D01*
X19452381Y-46393816D02*
X19428572Y-46441435D01*
X19428572Y-46441435D02*
X19404762Y-46465244D01*
X19404762Y-46465244D02*
X19357143Y-46489054D01*
X19357143Y-46489054D02*
X19166667Y-46489054D01*
X19928572Y-46727149D02*
X19642858Y-46727149D01*
X19785715Y-46727149D02*
X19785715Y-46227149D01*
X19785715Y-46227149D02*
X19738096Y-46298578D01*
X19738096Y-46298578D02*
X19690477Y-46346197D01*
X19690477Y-46346197D02*
X19642858Y-46370006D01*
X19935714Y-52627149D02*
X19697619Y-52627149D01*
X19697619Y-52627149D02*
X19697619Y-52127149D01*
X20102381Y-52365244D02*
X20269048Y-52365244D01*
X20340476Y-52627149D02*
X20102381Y-52627149D01*
X20102381Y-52627149D02*
X20102381Y-52127149D01*
X20102381Y-52127149D02*
X20340476Y-52127149D01*
X20554762Y-52627149D02*
X20554762Y-52127149D01*
X20554762Y-52127149D02*
X20673810Y-52127149D01*
X20673810Y-52127149D02*
X20745238Y-52150959D01*
X20745238Y-52150959D02*
X20792857Y-52198578D01*
X20792857Y-52198578D02*
X20816667Y-52246197D01*
X20816667Y-52246197D02*
X20840476Y-52341435D01*
X20840476Y-52341435D02*
X20840476Y-52412863D01*
X20840476Y-52412863D02*
X20816667Y-52508101D01*
X20816667Y-52508101D02*
X20792857Y-52555720D01*
X20792857Y-52555720D02*
X20745238Y-52603340D01*
X20745238Y-52603340D02*
X20673810Y-52627149D01*
X20673810Y-52627149D02*
X20554762Y-52627149D01*
X20935715Y-52674768D02*
X21316667Y-52674768D01*
X21530952Y-52127149D02*
X21626190Y-52127149D01*
X21626190Y-52127149D02*
X21673809Y-52150959D01*
X21673809Y-52150959D02*
X21721428Y-52198578D01*
X21721428Y-52198578D02*
X21745238Y-52293816D01*
X21745238Y-52293816D02*
X21745238Y-52460482D01*
X21745238Y-52460482D02*
X21721428Y-52555720D01*
X21721428Y-52555720D02*
X21673809Y-52603340D01*
X21673809Y-52603340D02*
X21626190Y-52627149D01*
X21626190Y-52627149D02*
X21530952Y-52627149D01*
X21530952Y-52627149D02*
X21483333Y-52603340D01*
X21483333Y-52603340D02*
X21435714Y-52555720D01*
X21435714Y-52555720D02*
X21411905Y-52460482D01*
X21411905Y-52460482D02*
X21411905Y-52293816D01*
X21411905Y-52293816D02*
X21435714Y-52198578D01*
X21435714Y-52198578D02*
X21483333Y-52150959D01*
X21483333Y-52150959D02*
X21530952Y-52127149D01*
X21959524Y-52127149D02*
X21959524Y-52531911D01*
X21959524Y-52531911D02*
X21983334Y-52579530D01*
X21983334Y-52579530D02*
X22007143Y-52603340D01*
X22007143Y-52603340D02*
X22054762Y-52627149D01*
X22054762Y-52627149D02*
X22150000Y-52627149D01*
X22150000Y-52627149D02*
X22197619Y-52603340D01*
X22197619Y-52603340D02*
X22221429Y-52579530D01*
X22221429Y-52579530D02*
X22245238Y-52531911D01*
X22245238Y-52531911D02*
X22245238Y-52127149D01*
X22411906Y-52127149D02*
X22697620Y-52127149D01*
X22554763Y-52627149D02*
X22554763Y-52127149D01*
X23126191Y-52627149D02*
X22840477Y-52627149D01*
X22983334Y-52627149D02*
X22983334Y-52127149D01*
X22983334Y-52127149D02*
X22935715Y-52198578D01*
X22935715Y-52198578D02*
X22888096Y-52246197D01*
X22888096Y-52246197D02*
X22840477Y-52270006D01*
X29440476Y-44727149D02*
X29273810Y-44489054D01*
X29154762Y-44727149D02*
X29154762Y-44227149D01*
X29154762Y-44227149D02*
X29345238Y-44227149D01*
X29345238Y-44227149D02*
X29392857Y-44250959D01*
X29392857Y-44250959D02*
X29416667Y-44274768D01*
X29416667Y-44274768D02*
X29440476Y-44322387D01*
X29440476Y-44322387D02*
X29440476Y-44393816D01*
X29440476Y-44393816D02*
X29416667Y-44441435D01*
X29416667Y-44441435D02*
X29392857Y-44465244D01*
X29392857Y-44465244D02*
X29345238Y-44489054D01*
X29345238Y-44489054D02*
X29154762Y-44489054D01*
X29654762Y-44465244D02*
X29821429Y-44465244D01*
X29892857Y-44727149D02*
X29654762Y-44727149D01*
X29654762Y-44727149D02*
X29654762Y-44227149D01*
X29654762Y-44227149D02*
X29892857Y-44227149D01*
X30369048Y-44250959D02*
X30321429Y-44227149D01*
X30321429Y-44227149D02*
X30250000Y-44227149D01*
X30250000Y-44227149D02*
X30178572Y-44250959D01*
X30178572Y-44250959D02*
X30130953Y-44298578D01*
X30130953Y-44298578D02*
X30107143Y-44346197D01*
X30107143Y-44346197D02*
X30083334Y-44441435D01*
X30083334Y-44441435D02*
X30083334Y-44512863D01*
X30083334Y-44512863D02*
X30107143Y-44608101D01*
X30107143Y-44608101D02*
X30130953Y-44655720D01*
X30130953Y-44655720D02*
X30178572Y-44703340D01*
X30178572Y-44703340D02*
X30250000Y-44727149D01*
X30250000Y-44727149D02*
X30297619Y-44727149D01*
X30297619Y-44727149D02*
X30369048Y-44703340D01*
X30369048Y-44703340D02*
X30392857Y-44679530D01*
X30392857Y-44679530D02*
X30392857Y-44512863D01*
X30392857Y-44512863D02*
X30297619Y-44512863D01*
X30869048Y-44727149D02*
X30583334Y-44727149D01*
X30726191Y-44727149D02*
X30726191Y-44227149D01*
X30726191Y-44227149D02*
X30678572Y-44298578D01*
X30678572Y-44298578D02*
X30630953Y-44346197D01*
X30630953Y-44346197D02*
X30583334Y-44370006D01*
X18183333Y-25927149D02*
X18183333Y-25427149D01*
X18183333Y-25427149D02*
X18350000Y-25784292D01*
X18350000Y-25784292D02*
X18516666Y-25427149D01*
X18516666Y-25427149D02*
X18516666Y-25927149D01*
X19040476Y-25879530D02*
X19016667Y-25903340D01*
X19016667Y-25903340D02*
X18945238Y-25927149D01*
X18945238Y-25927149D02*
X18897619Y-25927149D01*
X18897619Y-25927149D02*
X18826191Y-25903340D01*
X18826191Y-25903340D02*
X18778572Y-25855720D01*
X18778572Y-25855720D02*
X18754762Y-25808101D01*
X18754762Y-25808101D02*
X18730953Y-25712863D01*
X18730953Y-25712863D02*
X18730953Y-25641435D01*
X18730953Y-25641435D02*
X18754762Y-25546197D01*
X18754762Y-25546197D02*
X18778572Y-25498578D01*
X18778572Y-25498578D02*
X18826191Y-25450959D01*
X18826191Y-25450959D02*
X18897619Y-25427149D01*
X18897619Y-25427149D02*
X18945238Y-25427149D01*
X18945238Y-25427149D02*
X19016667Y-25450959D01*
X19016667Y-25450959D02*
X19040476Y-25474768D01*
X19254762Y-25427149D02*
X19254762Y-25831911D01*
X19254762Y-25831911D02*
X19278572Y-25879530D01*
X19278572Y-25879530D02*
X19302381Y-25903340D01*
X19302381Y-25903340D02*
X19350000Y-25927149D01*
X19350000Y-25927149D02*
X19445238Y-25927149D01*
X19445238Y-25927149D02*
X19492857Y-25903340D01*
X19492857Y-25903340D02*
X19516667Y-25879530D01*
X19516667Y-25879530D02*
X19540476Y-25831911D01*
X19540476Y-25831911D02*
X19540476Y-25427149D01*
X20040477Y-25927149D02*
X19754763Y-25927149D01*
X19897620Y-25927149D02*
X19897620Y-25427149D01*
X19897620Y-25427149D02*
X19850001Y-25498578D01*
X19850001Y-25498578D02*
X19802382Y-25546197D01*
X19802382Y-25546197D02*
X19754763Y-25570006D01*
X32530887Y-42307142D02*
X32340411Y-42440475D01*
X32530887Y-42535713D02*
X32130887Y-42535713D01*
X32130887Y-42535713D02*
X32130887Y-42383332D01*
X32130887Y-42383332D02*
X32149935Y-42345237D01*
X32149935Y-42345237D02*
X32168982Y-42326190D01*
X32168982Y-42326190D02*
X32207078Y-42307142D01*
X32207078Y-42307142D02*
X32264220Y-42307142D01*
X32264220Y-42307142D02*
X32302316Y-42326190D01*
X32302316Y-42326190D02*
X32321363Y-42345237D01*
X32321363Y-42345237D02*
X32340411Y-42383332D01*
X32340411Y-42383332D02*
X32340411Y-42535713D01*
X32530887Y-41926190D02*
X32530887Y-42154761D01*
X32530887Y-42040475D02*
X32130887Y-42040475D01*
X32130887Y-42040475D02*
X32188030Y-42078571D01*
X32188030Y-42078571D02*
X32226125Y-42116666D01*
X32226125Y-42116666D02*
X32245173Y-42154761D01*
X32130887Y-41792857D02*
X32130887Y-41545238D01*
X32130887Y-41545238D02*
X32283268Y-41678571D01*
X32283268Y-41678571D02*
X32283268Y-41621428D01*
X32283268Y-41621428D02*
X32302316Y-41583333D01*
X32302316Y-41583333D02*
X32321363Y-41564285D01*
X32321363Y-41564285D02*
X32359459Y-41545238D01*
X32359459Y-41545238D02*
X32454697Y-41545238D01*
X32454697Y-41545238D02*
X32492792Y-41564285D01*
X32492792Y-41564285D02*
X32511840Y-41583333D01*
X32511840Y-41583333D02*
X32530887Y-41621428D01*
X32530887Y-41621428D02*
X32530887Y-41735714D01*
X32530887Y-41735714D02*
X32511840Y-41773809D01*
X32511840Y-41773809D02*
X32492792Y-41792857D01*
X35379530Y-20883333D02*
X35403340Y-20907142D01*
X35403340Y-20907142D02*
X35427149Y-20978571D01*
X35427149Y-20978571D02*
X35427149Y-21026190D01*
X35427149Y-21026190D02*
X35403340Y-21097618D01*
X35403340Y-21097618D02*
X35355720Y-21145237D01*
X35355720Y-21145237D02*
X35308101Y-21169047D01*
X35308101Y-21169047D02*
X35212863Y-21192856D01*
X35212863Y-21192856D02*
X35141435Y-21192856D01*
X35141435Y-21192856D02*
X35046197Y-21169047D01*
X35046197Y-21169047D02*
X34998578Y-21145237D01*
X34998578Y-21145237D02*
X34950959Y-21097618D01*
X34950959Y-21097618D02*
X34927149Y-21026190D01*
X34927149Y-21026190D02*
X34927149Y-20978571D01*
X34927149Y-20978571D02*
X34950959Y-20907142D01*
X34950959Y-20907142D02*
X34974768Y-20883333D01*
X34927149Y-20454761D02*
X34927149Y-20549999D01*
X34927149Y-20549999D02*
X34950959Y-20597618D01*
X34950959Y-20597618D02*
X34974768Y-20621428D01*
X34974768Y-20621428D02*
X35046197Y-20669047D01*
X35046197Y-20669047D02*
X35141435Y-20692856D01*
X35141435Y-20692856D02*
X35331911Y-20692856D01*
X35331911Y-20692856D02*
X35379530Y-20669047D01*
X35379530Y-20669047D02*
X35403340Y-20645237D01*
X35403340Y-20645237D02*
X35427149Y-20597618D01*
X35427149Y-20597618D02*
X35427149Y-20502380D01*
X35427149Y-20502380D02*
X35403340Y-20454761D01*
X35403340Y-20454761D02*
X35379530Y-20430952D01*
X35379530Y-20430952D02*
X35331911Y-20407142D01*
X35331911Y-20407142D02*
X35212863Y-20407142D01*
X35212863Y-20407142D02*
X35165244Y-20430952D01*
X35165244Y-20430952D02*
X35141435Y-20454761D01*
X35141435Y-20454761D02*
X35117625Y-20502380D01*
X35117625Y-20502380D02*
X35117625Y-20597618D01*
X35117625Y-20597618D02*
X35141435Y-20645237D01*
X35141435Y-20645237D02*
X35165244Y-20669047D01*
X35165244Y-20669047D02*
X35212863Y-20692856D01*
X18627149Y-50008333D02*
X18389054Y-50174999D01*
X18627149Y-50294047D02*
X18127149Y-50294047D01*
X18127149Y-50294047D02*
X18127149Y-50103571D01*
X18127149Y-50103571D02*
X18150959Y-50055952D01*
X18150959Y-50055952D02*
X18174768Y-50032142D01*
X18174768Y-50032142D02*
X18222387Y-50008333D01*
X18222387Y-50008333D02*
X18293816Y-50008333D01*
X18293816Y-50008333D02*
X18341435Y-50032142D01*
X18341435Y-50032142D02*
X18365244Y-50055952D01*
X18365244Y-50055952D02*
X18389054Y-50103571D01*
X18389054Y-50103571D02*
X18389054Y-50294047D01*
X18174768Y-49817856D02*
X18150959Y-49794047D01*
X18150959Y-49794047D02*
X18127149Y-49746428D01*
X18127149Y-49746428D02*
X18127149Y-49627380D01*
X18127149Y-49627380D02*
X18150959Y-49579761D01*
X18150959Y-49579761D02*
X18174768Y-49555952D01*
X18174768Y-49555952D02*
X18222387Y-49532142D01*
X18222387Y-49532142D02*
X18270006Y-49532142D01*
X18270006Y-49532142D02*
X18341435Y-49555952D01*
X18341435Y-49555952D02*
X18627149Y-49841666D01*
X18627149Y-49841666D02*
X18627149Y-49532142D01*
X18627149Y-48483333D02*
X18389054Y-48649999D01*
X18627149Y-48769047D02*
X18127149Y-48769047D01*
X18127149Y-48769047D02*
X18127149Y-48578571D01*
X18127149Y-48578571D02*
X18150959Y-48530952D01*
X18150959Y-48530952D02*
X18174768Y-48507142D01*
X18174768Y-48507142D02*
X18222387Y-48483333D01*
X18222387Y-48483333D02*
X18293816Y-48483333D01*
X18293816Y-48483333D02*
X18341435Y-48507142D01*
X18341435Y-48507142D02*
X18365244Y-48530952D01*
X18365244Y-48530952D02*
X18389054Y-48578571D01*
X18389054Y-48578571D02*
X18389054Y-48769047D01*
X18627149Y-48007142D02*
X18627149Y-48292856D01*
X18627149Y-48149999D02*
X18127149Y-48149999D01*
X18127149Y-48149999D02*
X18198578Y-48197618D01*
X18198578Y-48197618D02*
X18246197Y-48245237D01*
X18246197Y-48245237D02*
X18270006Y-48292856D01*
X43333333Y-47642792D02*
X43314285Y-47661840D01*
X43314285Y-47661840D02*
X43257143Y-47680887D01*
X43257143Y-47680887D02*
X43219047Y-47680887D01*
X43219047Y-47680887D02*
X43161904Y-47661840D01*
X43161904Y-47661840D02*
X43123809Y-47623744D01*
X43123809Y-47623744D02*
X43104762Y-47585649D01*
X43104762Y-47585649D02*
X43085714Y-47509459D01*
X43085714Y-47509459D02*
X43085714Y-47452316D01*
X43085714Y-47452316D02*
X43104762Y-47376125D01*
X43104762Y-47376125D02*
X43123809Y-47338030D01*
X43123809Y-47338030D02*
X43161904Y-47299935D01*
X43161904Y-47299935D02*
X43219047Y-47280887D01*
X43219047Y-47280887D02*
X43257143Y-47280887D01*
X43257143Y-47280887D02*
X43314285Y-47299935D01*
X43314285Y-47299935D02*
X43333333Y-47318982D01*
X43714285Y-47680887D02*
X43485714Y-47680887D01*
X43600000Y-47680887D02*
X43600000Y-47280887D01*
X43600000Y-47280887D02*
X43561904Y-47338030D01*
X43561904Y-47338030D02*
X43523809Y-47376125D01*
X43523809Y-47376125D02*
X43485714Y-47395173D01*
X45527149Y-50673809D02*
X45027149Y-50673809D01*
X45027149Y-50673809D02*
X45384292Y-50507142D01*
X45384292Y-50507142D02*
X45027149Y-50340476D01*
X45027149Y-50340476D02*
X45527149Y-50340476D01*
X45527149Y-50102380D02*
X45027149Y-50102380D01*
X45479530Y-49578571D02*
X45503340Y-49602380D01*
X45503340Y-49602380D02*
X45527149Y-49673809D01*
X45527149Y-49673809D02*
X45527149Y-49721428D01*
X45527149Y-49721428D02*
X45503340Y-49792856D01*
X45503340Y-49792856D02*
X45455720Y-49840475D01*
X45455720Y-49840475D02*
X45408101Y-49864285D01*
X45408101Y-49864285D02*
X45312863Y-49888094D01*
X45312863Y-49888094D02*
X45241435Y-49888094D01*
X45241435Y-49888094D02*
X45146197Y-49864285D01*
X45146197Y-49864285D02*
X45098578Y-49840475D01*
X45098578Y-49840475D02*
X45050959Y-49792856D01*
X45050959Y-49792856D02*
X45027149Y-49721428D01*
X45027149Y-49721428D02*
X45027149Y-49673809D01*
X45027149Y-49673809D02*
X45050959Y-49602380D01*
X45050959Y-49602380D02*
X45074768Y-49578571D01*
X45527149Y-49102380D02*
X45527149Y-49388094D01*
X45527149Y-49245237D02*
X45027149Y-49245237D01*
X45027149Y-49245237D02*
X45098578Y-49292856D01*
X45098578Y-49292856D02*
X45146197Y-49340475D01*
X45146197Y-49340475D02*
X45170006Y-49388094D01*
X34480887Y-23366666D02*
X34290411Y-23499999D01*
X34480887Y-23595237D02*
X34080887Y-23595237D01*
X34080887Y-23595237D02*
X34080887Y-23442856D01*
X34080887Y-23442856D02*
X34099935Y-23404761D01*
X34099935Y-23404761D02*
X34118982Y-23385714D01*
X34118982Y-23385714D02*
X34157078Y-23366666D01*
X34157078Y-23366666D02*
X34214220Y-23366666D01*
X34214220Y-23366666D02*
X34252316Y-23385714D01*
X34252316Y-23385714D02*
X34271363Y-23404761D01*
X34271363Y-23404761D02*
X34290411Y-23442856D01*
X34290411Y-23442856D02*
X34290411Y-23595237D01*
X34080887Y-23004761D02*
X34080887Y-23195237D01*
X34080887Y-23195237D02*
X34271363Y-23214285D01*
X34271363Y-23214285D02*
X34252316Y-23195237D01*
X34252316Y-23195237D02*
X34233268Y-23157142D01*
X34233268Y-23157142D02*
X34233268Y-23061904D01*
X34233268Y-23061904D02*
X34252316Y-23023809D01*
X34252316Y-23023809D02*
X34271363Y-23004761D01*
X34271363Y-23004761D02*
X34309459Y-22985714D01*
X34309459Y-22985714D02*
X34404697Y-22985714D01*
X34404697Y-22985714D02*
X34442792Y-23004761D01*
X34442792Y-23004761D02*
X34461840Y-23023809D01*
X34461840Y-23023809D02*
X34480887Y-23061904D01*
X34480887Y-23061904D02*
X34480887Y-23157142D01*
X34480887Y-23157142D02*
X34461840Y-23195237D01*
X34461840Y-23195237D02*
X34442792Y-23214285D01*
X41827149Y-25342856D02*
X41827149Y-25057142D01*
X42327149Y-25199999D02*
X41827149Y-25199999D01*
X42065244Y-24890476D02*
X42065244Y-24723809D01*
X42327149Y-24652381D02*
X42327149Y-24890476D01*
X42327149Y-24890476D02*
X41827149Y-24890476D01*
X41827149Y-24890476D02*
X41827149Y-24652381D01*
X42327149Y-24438095D02*
X41827149Y-24438095D01*
X41827149Y-24438095D02*
X42184292Y-24271428D01*
X42184292Y-24271428D02*
X41827149Y-24104762D01*
X41827149Y-24104762D02*
X42327149Y-24104762D01*
X42327149Y-23866666D02*
X41827149Y-23866666D01*
X41827149Y-23866666D02*
X41827149Y-23676190D01*
X41827149Y-23676190D02*
X41850959Y-23628571D01*
X41850959Y-23628571D02*
X41874768Y-23604761D01*
X41874768Y-23604761D02*
X41922387Y-23580952D01*
X41922387Y-23580952D02*
X41993816Y-23580952D01*
X41993816Y-23580952D02*
X42041435Y-23604761D01*
X42041435Y-23604761D02*
X42065244Y-23628571D01*
X42065244Y-23628571D02*
X42089054Y-23676190D01*
X42089054Y-23676190D02*
X42089054Y-23866666D01*
X42327149Y-23104761D02*
X42327149Y-23390475D01*
X42327149Y-23247618D02*
X41827149Y-23247618D01*
X41827149Y-23247618D02*
X41898578Y-23295237D01*
X41898578Y-23295237D02*
X41946197Y-23342856D01*
X41946197Y-23342856D02*
X41970006Y-23390475D01*
X38655887Y-32091666D02*
X38465411Y-32224999D01*
X38655887Y-32320237D02*
X38255887Y-32320237D01*
X38255887Y-32320237D02*
X38255887Y-32167856D01*
X38255887Y-32167856D02*
X38274935Y-32129761D01*
X38274935Y-32129761D02*
X38293982Y-32110714D01*
X38293982Y-32110714D02*
X38332078Y-32091666D01*
X38332078Y-32091666D02*
X38389220Y-32091666D01*
X38389220Y-32091666D02*
X38427316Y-32110714D01*
X38427316Y-32110714D02*
X38446363Y-32129761D01*
X38446363Y-32129761D02*
X38465411Y-32167856D01*
X38465411Y-32167856D02*
X38465411Y-32320237D01*
X38389220Y-31748809D02*
X38655887Y-31748809D01*
X38236840Y-31844047D02*
X38522554Y-31939285D01*
X38522554Y-31939285D02*
X38522554Y-31691666D01*
X36530887Y-43995237D02*
X36130887Y-43995237D01*
X36130887Y-43995237D02*
X36130887Y-43899999D01*
X36130887Y-43899999D02*
X36149935Y-43842856D01*
X36149935Y-43842856D02*
X36188030Y-43804761D01*
X36188030Y-43804761D02*
X36226125Y-43785714D01*
X36226125Y-43785714D02*
X36302316Y-43766666D01*
X36302316Y-43766666D02*
X36359459Y-43766666D01*
X36359459Y-43766666D02*
X36435649Y-43785714D01*
X36435649Y-43785714D02*
X36473744Y-43804761D01*
X36473744Y-43804761D02*
X36511840Y-43842856D01*
X36511840Y-43842856D02*
X36530887Y-43899999D01*
X36530887Y-43899999D02*
X36530887Y-43995237D01*
X36530887Y-43385714D02*
X36530887Y-43614285D01*
X36530887Y-43499999D02*
X36130887Y-43499999D01*
X36130887Y-43499999D02*
X36188030Y-43538095D01*
X36188030Y-43538095D02*
X36226125Y-43576190D01*
X36226125Y-43576190D02*
X36245173Y-43614285D01*
X34480887Y-24966666D02*
X34290411Y-25099999D01*
X34480887Y-25195237D02*
X34080887Y-25195237D01*
X34080887Y-25195237D02*
X34080887Y-25042856D01*
X34080887Y-25042856D02*
X34099935Y-25004761D01*
X34099935Y-25004761D02*
X34118982Y-24985714D01*
X34118982Y-24985714D02*
X34157078Y-24966666D01*
X34157078Y-24966666D02*
X34214220Y-24966666D01*
X34214220Y-24966666D02*
X34252316Y-24985714D01*
X34252316Y-24985714D02*
X34271363Y-25004761D01*
X34271363Y-25004761D02*
X34290411Y-25042856D01*
X34290411Y-25042856D02*
X34290411Y-25195237D01*
X34080887Y-24623809D02*
X34080887Y-24699999D01*
X34080887Y-24699999D02*
X34099935Y-24738095D01*
X34099935Y-24738095D02*
X34118982Y-24757142D01*
X34118982Y-24757142D02*
X34176125Y-24795237D01*
X34176125Y-24795237D02*
X34252316Y-24814285D01*
X34252316Y-24814285D02*
X34404697Y-24814285D01*
X34404697Y-24814285D02*
X34442792Y-24795237D01*
X34442792Y-24795237D02*
X34461840Y-24776190D01*
X34461840Y-24776190D02*
X34480887Y-24738095D01*
X34480887Y-24738095D02*
X34480887Y-24661904D01*
X34480887Y-24661904D02*
X34461840Y-24623809D01*
X34461840Y-24623809D02*
X34442792Y-24604761D01*
X34442792Y-24604761D02*
X34404697Y-24585714D01*
X34404697Y-24585714D02*
X34309459Y-24585714D01*
X34309459Y-24585714D02*
X34271363Y-24604761D01*
X34271363Y-24604761D02*
X34252316Y-24623809D01*
X34252316Y-24623809D02*
X34233268Y-24661904D01*
X34233268Y-24661904D02*
X34233268Y-24738095D01*
X34233268Y-24738095D02*
X34252316Y-24776190D01*
X34252316Y-24776190D02*
X34271363Y-24795237D01*
X34271363Y-24795237D02*
X34309459Y-24814285D01*
X39342792Y-40566666D02*
X39361840Y-40585714D01*
X39361840Y-40585714D02*
X39380887Y-40642856D01*
X39380887Y-40642856D02*
X39380887Y-40680952D01*
X39380887Y-40680952D02*
X39361840Y-40738095D01*
X39361840Y-40738095D02*
X39323744Y-40776190D01*
X39323744Y-40776190D02*
X39285649Y-40795237D01*
X39285649Y-40795237D02*
X39209459Y-40814285D01*
X39209459Y-40814285D02*
X39152316Y-40814285D01*
X39152316Y-40814285D02*
X39076125Y-40795237D01*
X39076125Y-40795237D02*
X39038030Y-40776190D01*
X39038030Y-40776190D02*
X38999935Y-40738095D01*
X38999935Y-40738095D02*
X38980887Y-40680952D01*
X38980887Y-40680952D02*
X38980887Y-40642856D01*
X38980887Y-40642856D02*
X38999935Y-40585714D01*
X38999935Y-40585714D02*
X39018982Y-40566666D01*
X39018982Y-40414285D02*
X38999935Y-40395237D01*
X38999935Y-40395237D02*
X38980887Y-40357142D01*
X38980887Y-40357142D02*
X38980887Y-40261904D01*
X38980887Y-40261904D02*
X38999935Y-40223809D01*
X38999935Y-40223809D02*
X39018982Y-40204761D01*
X39018982Y-40204761D02*
X39057078Y-40185714D01*
X39057078Y-40185714D02*
X39095173Y-40185714D01*
X39095173Y-40185714D02*
X39152316Y-40204761D01*
X39152316Y-40204761D02*
X39380887Y-40433333D01*
X39380887Y-40433333D02*
X39380887Y-40185714D01*
X44028571Y-24729530D02*
X44004762Y-24753340D01*
X44004762Y-24753340D02*
X43933333Y-24777149D01*
X43933333Y-24777149D02*
X43885714Y-24777149D01*
X43885714Y-24777149D02*
X43814286Y-24753340D01*
X43814286Y-24753340D02*
X43766667Y-24705720D01*
X43766667Y-24705720D02*
X43742857Y-24658101D01*
X43742857Y-24658101D02*
X43719048Y-24562863D01*
X43719048Y-24562863D02*
X43719048Y-24491435D01*
X43719048Y-24491435D02*
X43742857Y-24396197D01*
X43742857Y-24396197D02*
X43766667Y-24348578D01*
X43766667Y-24348578D02*
X43814286Y-24300959D01*
X43814286Y-24300959D02*
X43885714Y-24277149D01*
X43885714Y-24277149D02*
X43933333Y-24277149D01*
X43933333Y-24277149D02*
X44004762Y-24300959D01*
X44004762Y-24300959D02*
X44028571Y-24324768D01*
X44504762Y-24777149D02*
X44219048Y-24777149D01*
X44361905Y-24777149D02*
X44361905Y-24277149D01*
X44361905Y-24277149D02*
X44314286Y-24348578D01*
X44314286Y-24348578D02*
X44266667Y-24396197D01*
X44266667Y-24396197D02*
X44219048Y-24420006D01*
X44814285Y-24277149D02*
X44861904Y-24277149D01*
X44861904Y-24277149D02*
X44909523Y-24300959D01*
X44909523Y-24300959D02*
X44933333Y-24324768D01*
X44933333Y-24324768D02*
X44957142Y-24372387D01*
X44957142Y-24372387D02*
X44980952Y-24467625D01*
X44980952Y-24467625D02*
X44980952Y-24586673D01*
X44980952Y-24586673D02*
X44957142Y-24681911D01*
X44957142Y-24681911D02*
X44933333Y-24729530D01*
X44933333Y-24729530D02*
X44909523Y-24753340D01*
X44909523Y-24753340D02*
X44861904Y-24777149D01*
X44861904Y-24777149D02*
X44814285Y-24777149D01*
X44814285Y-24777149D02*
X44766666Y-24753340D01*
X44766666Y-24753340D02*
X44742857Y-24729530D01*
X44742857Y-24729530D02*
X44719047Y-24681911D01*
X44719047Y-24681911D02*
X44695238Y-24586673D01*
X44695238Y-24586673D02*
X44695238Y-24467625D01*
X44695238Y-24467625D02*
X44719047Y-24372387D01*
X44719047Y-24372387D02*
X44742857Y-24324768D01*
X44742857Y-24324768D02*
X44766666Y-24300959D01*
X44766666Y-24300959D02*
X44814285Y-24277149D01*
X37808333Y-30842792D02*
X37789285Y-30861840D01*
X37789285Y-30861840D02*
X37732143Y-30880887D01*
X37732143Y-30880887D02*
X37694047Y-30880887D01*
X37694047Y-30880887D02*
X37636904Y-30861840D01*
X37636904Y-30861840D02*
X37598809Y-30823744D01*
X37598809Y-30823744D02*
X37579762Y-30785649D01*
X37579762Y-30785649D02*
X37560714Y-30709459D01*
X37560714Y-30709459D02*
X37560714Y-30652316D01*
X37560714Y-30652316D02*
X37579762Y-30576125D01*
X37579762Y-30576125D02*
X37598809Y-30538030D01*
X37598809Y-30538030D02*
X37636904Y-30499935D01*
X37636904Y-30499935D02*
X37694047Y-30480887D01*
X37694047Y-30480887D02*
X37732143Y-30480887D01*
X37732143Y-30480887D02*
X37789285Y-30499935D01*
X37789285Y-30499935D02*
X37808333Y-30518982D01*
X38036904Y-30652316D02*
X37998809Y-30633268D01*
X37998809Y-30633268D02*
X37979762Y-30614220D01*
X37979762Y-30614220D02*
X37960714Y-30576125D01*
X37960714Y-30576125D02*
X37960714Y-30557078D01*
X37960714Y-30557078D02*
X37979762Y-30518982D01*
X37979762Y-30518982D02*
X37998809Y-30499935D01*
X37998809Y-30499935D02*
X38036904Y-30480887D01*
X38036904Y-30480887D02*
X38113095Y-30480887D01*
X38113095Y-30480887D02*
X38151190Y-30499935D01*
X38151190Y-30499935D02*
X38170238Y-30518982D01*
X38170238Y-30518982D02*
X38189285Y-30557078D01*
X38189285Y-30557078D02*
X38189285Y-30576125D01*
X38189285Y-30576125D02*
X38170238Y-30614220D01*
X38170238Y-30614220D02*
X38151190Y-30633268D01*
X38151190Y-30633268D02*
X38113095Y-30652316D01*
X38113095Y-30652316D02*
X38036904Y-30652316D01*
X38036904Y-30652316D02*
X37998809Y-30671363D01*
X37998809Y-30671363D02*
X37979762Y-30690411D01*
X37979762Y-30690411D02*
X37960714Y-30728506D01*
X37960714Y-30728506D02*
X37960714Y-30804697D01*
X37960714Y-30804697D02*
X37979762Y-30842792D01*
X37979762Y-30842792D02*
X37998809Y-30861840D01*
X37998809Y-30861840D02*
X38036904Y-30880887D01*
X38036904Y-30880887D02*
X38113095Y-30880887D01*
X38113095Y-30880887D02*
X38151190Y-30861840D01*
X38151190Y-30861840D02*
X38170238Y-30842792D01*
X38170238Y-30842792D02*
X38189285Y-30804697D01*
X38189285Y-30804697D02*
X38189285Y-30728506D01*
X38189285Y-30728506D02*
X38170238Y-30690411D01*
X38170238Y-30690411D02*
X38151190Y-30671363D01*
X38151190Y-30671363D02*
X38113095Y-30652316D01*
X38930887Y-48557142D02*
X38740411Y-48690475D01*
X38930887Y-48785713D02*
X38530887Y-48785713D01*
X38530887Y-48785713D02*
X38530887Y-48633332D01*
X38530887Y-48633332D02*
X38549935Y-48595237D01*
X38549935Y-48595237D02*
X38568982Y-48576190D01*
X38568982Y-48576190D02*
X38607078Y-48557142D01*
X38607078Y-48557142D02*
X38664220Y-48557142D01*
X38664220Y-48557142D02*
X38702316Y-48576190D01*
X38702316Y-48576190D02*
X38721363Y-48595237D01*
X38721363Y-48595237D02*
X38740411Y-48633332D01*
X38740411Y-48633332D02*
X38740411Y-48785713D01*
X38930887Y-48176190D02*
X38930887Y-48404761D01*
X38930887Y-48290475D02*
X38530887Y-48290475D01*
X38530887Y-48290475D02*
X38588030Y-48328571D01*
X38588030Y-48328571D02*
X38626125Y-48366666D01*
X38626125Y-48366666D02*
X38645173Y-48404761D01*
X38530887Y-47814285D02*
X38530887Y-48004761D01*
X38530887Y-48004761D02*
X38721363Y-48023809D01*
X38721363Y-48023809D02*
X38702316Y-48004761D01*
X38702316Y-48004761D02*
X38683268Y-47966666D01*
X38683268Y-47966666D02*
X38683268Y-47871428D01*
X38683268Y-47871428D02*
X38702316Y-47833333D01*
X38702316Y-47833333D02*
X38721363Y-47814285D01*
X38721363Y-47814285D02*
X38759459Y-47795238D01*
X38759459Y-47795238D02*
X38854697Y-47795238D01*
X38854697Y-47795238D02*
X38892792Y-47814285D01*
X38892792Y-47814285D02*
X38911840Y-47833333D01*
X38911840Y-47833333D02*
X38930887Y-47871428D01*
X38930887Y-47871428D02*
X38930887Y-47966666D01*
X38930887Y-47966666D02*
X38911840Y-48004761D01*
X38911840Y-48004761D02*
X38892792Y-48023809D01*
X34033333Y-36542792D02*
X34014285Y-36561840D01*
X34014285Y-36561840D02*
X33957143Y-36580887D01*
X33957143Y-36580887D02*
X33919047Y-36580887D01*
X33919047Y-36580887D02*
X33861904Y-36561840D01*
X33861904Y-36561840D02*
X33823809Y-36523744D01*
X33823809Y-36523744D02*
X33804762Y-36485649D01*
X33804762Y-36485649D02*
X33785714Y-36409459D01*
X33785714Y-36409459D02*
X33785714Y-36352316D01*
X33785714Y-36352316D02*
X33804762Y-36276125D01*
X33804762Y-36276125D02*
X33823809Y-36238030D01*
X33823809Y-36238030D02*
X33861904Y-36199935D01*
X33861904Y-36199935D02*
X33919047Y-36180887D01*
X33919047Y-36180887D02*
X33957143Y-36180887D01*
X33957143Y-36180887D02*
X34014285Y-36199935D01*
X34014285Y-36199935D02*
X34033333Y-36218982D01*
X34223809Y-36580887D02*
X34300000Y-36580887D01*
X34300000Y-36580887D02*
X34338095Y-36561840D01*
X34338095Y-36561840D02*
X34357143Y-36542792D01*
X34357143Y-36542792D02*
X34395238Y-36485649D01*
X34395238Y-36485649D02*
X34414285Y-36409459D01*
X34414285Y-36409459D02*
X34414285Y-36257078D01*
X34414285Y-36257078D02*
X34395238Y-36218982D01*
X34395238Y-36218982D02*
X34376190Y-36199935D01*
X34376190Y-36199935D02*
X34338095Y-36180887D01*
X34338095Y-36180887D02*
X34261904Y-36180887D01*
X34261904Y-36180887D02*
X34223809Y-36199935D01*
X34223809Y-36199935D02*
X34204762Y-36218982D01*
X34204762Y-36218982D02*
X34185714Y-36257078D01*
X34185714Y-36257078D02*
X34185714Y-36352316D01*
X34185714Y-36352316D02*
X34204762Y-36390411D01*
X34204762Y-36390411D02*
X34223809Y-36409459D01*
X34223809Y-36409459D02*
X34261904Y-36428506D01*
X34261904Y-36428506D02*
X34338095Y-36428506D01*
X34338095Y-36428506D02*
X34376190Y-36409459D01*
X34376190Y-36409459D02*
X34395238Y-36390411D01*
X34395238Y-36390411D02*
X34414285Y-36352316D01*
X26766667Y-23611840D02*
X26823810Y-23630887D01*
X26823810Y-23630887D02*
X26919048Y-23630887D01*
X26919048Y-23630887D02*
X26957143Y-23611840D01*
X26957143Y-23611840D02*
X26976191Y-23592792D01*
X26976191Y-23592792D02*
X26995238Y-23554697D01*
X26995238Y-23554697D02*
X26995238Y-23516601D01*
X26995238Y-23516601D02*
X26976191Y-23478506D01*
X26976191Y-23478506D02*
X26957143Y-23459459D01*
X26957143Y-23459459D02*
X26919048Y-23440411D01*
X26919048Y-23440411D02*
X26842857Y-23421363D01*
X26842857Y-23421363D02*
X26804762Y-23402316D01*
X26804762Y-23402316D02*
X26785715Y-23383268D01*
X26785715Y-23383268D02*
X26766667Y-23345173D01*
X26766667Y-23345173D02*
X26766667Y-23307078D01*
X26766667Y-23307078D02*
X26785715Y-23268982D01*
X26785715Y-23268982D02*
X26804762Y-23249935D01*
X26804762Y-23249935D02*
X26842857Y-23230887D01*
X26842857Y-23230887D02*
X26938096Y-23230887D01*
X26938096Y-23230887D02*
X26995238Y-23249935D01*
X27128571Y-23230887D02*
X27223809Y-23630887D01*
X27223809Y-23630887D02*
X27300000Y-23345173D01*
X27300000Y-23345173D02*
X27376190Y-23630887D01*
X27376190Y-23630887D02*
X27471429Y-23230887D01*
X27604762Y-23268982D02*
X27623810Y-23249935D01*
X27623810Y-23249935D02*
X27661905Y-23230887D01*
X27661905Y-23230887D02*
X27757143Y-23230887D01*
X27757143Y-23230887D02*
X27795238Y-23249935D01*
X27795238Y-23249935D02*
X27814286Y-23268982D01*
X27814286Y-23268982D02*
X27833333Y-23307078D01*
X27833333Y-23307078D02*
X27833333Y-23345173D01*
X27833333Y-23345173D02*
X27814286Y-23402316D01*
X27814286Y-23402316D02*
X27585714Y-23630887D01*
X27585714Y-23630887D02*
X27833333Y-23630887D01*
X35192792Y-48207142D02*
X35211840Y-48226190D01*
X35211840Y-48226190D02*
X35230887Y-48283332D01*
X35230887Y-48283332D02*
X35230887Y-48321428D01*
X35230887Y-48321428D02*
X35211840Y-48378571D01*
X35211840Y-48378571D02*
X35173744Y-48416666D01*
X35173744Y-48416666D02*
X35135649Y-48435713D01*
X35135649Y-48435713D02*
X35059459Y-48454761D01*
X35059459Y-48454761D02*
X35002316Y-48454761D01*
X35002316Y-48454761D02*
X34926125Y-48435713D01*
X34926125Y-48435713D02*
X34888030Y-48416666D01*
X34888030Y-48416666D02*
X34849935Y-48378571D01*
X34849935Y-48378571D02*
X34830887Y-48321428D01*
X34830887Y-48321428D02*
X34830887Y-48283332D01*
X34830887Y-48283332D02*
X34849935Y-48226190D01*
X34849935Y-48226190D02*
X34868982Y-48207142D01*
X35230887Y-47826190D02*
X35230887Y-48054761D01*
X35230887Y-47940475D02*
X34830887Y-47940475D01*
X34830887Y-47940475D02*
X34888030Y-47978571D01*
X34888030Y-47978571D02*
X34926125Y-48016666D01*
X34926125Y-48016666D02*
X34945173Y-48054761D01*
X34964220Y-47483333D02*
X35230887Y-47483333D01*
X34811840Y-47578571D02*
X35097554Y-47673809D01*
X35097554Y-47673809D02*
X35097554Y-47426190D01*
X34479530Y-40633333D02*
X34503340Y-40657142D01*
X34503340Y-40657142D02*
X34527149Y-40728571D01*
X34527149Y-40728571D02*
X34527149Y-40776190D01*
X34527149Y-40776190D02*
X34503340Y-40847618D01*
X34503340Y-40847618D02*
X34455720Y-40895237D01*
X34455720Y-40895237D02*
X34408101Y-40919047D01*
X34408101Y-40919047D02*
X34312863Y-40942856D01*
X34312863Y-40942856D02*
X34241435Y-40942856D01*
X34241435Y-40942856D02*
X34146197Y-40919047D01*
X34146197Y-40919047D02*
X34098578Y-40895237D01*
X34098578Y-40895237D02*
X34050959Y-40847618D01*
X34050959Y-40847618D02*
X34027149Y-40776190D01*
X34027149Y-40776190D02*
X34027149Y-40728571D01*
X34027149Y-40728571D02*
X34050959Y-40657142D01*
X34050959Y-40657142D02*
X34074768Y-40633333D01*
X34027149Y-40466666D02*
X34027149Y-40157142D01*
X34027149Y-40157142D02*
X34217625Y-40323809D01*
X34217625Y-40323809D02*
X34217625Y-40252380D01*
X34217625Y-40252380D02*
X34241435Y-40204761D01*
X34241435Y-40204761D02*
X34265244Y-40180952D01*
X34265244Y-40180952D02*
X34312863Y-40157142D01*
X34312863Y-40157142D02*
X34431911Y-40157142D01*
X34431911Y-40157142D02*
X34479530Y-40180952D01*
X34479530Y-40180952D02*
X34503340Y-40204761D01*
X34503340Y-40204761D02*
X34527149Y-40252380D01*
X34527149Y-40252380D02*
X34527149Y-40395237D01*
X34527149Y-40395237D02*
X34503340Y-40442856D01*
X34503340Y-40442856D02*
X34479530Y-40466666D01*
X37942857Y-38180887D02*
X37809524Y-37990411D01*
X37714286Y-38180887D02*
X37714286Y-37780887D01*
X37714286Y-37780887D02*
X37866667Y-37780887D01*
X37866667Y-37780887D02*
X37904762Y-37799935D01*
X37904762Y-37799935D02*
X37923809Y-37818982D01*
X37923809Y-37818982D02*
X37942857Y-37857078D01*
X37942857Y-37857078D02*
X37942857Y-37914220D01*
X37942857Y-37914220D02*
X37923809Y-37952316D01*
X37923809Y-37952316D02*
X37904762Y-37971363D01*
X37904762Y-37971363D02*
X37866667Y-37990411D01*
X37866667Y-37990411D02*
X37714286Y-37990411D01*
X38323809Y-38180887D02*
X38095238Y-38180887D01*
X38209524Y-38180887D02*
X38209524Y-37780887D01*
X38209524Y-37780887D02*
X38171428Y-37838030D01*
X38171428Y-37838030D02*
X38133333Y-37876125D01*
X38133333Y-37876125D02*
X38095238Y-37895173D01*
X38666666Y-37914220D02*
X38666666Y-38180887D01*
X38571428Y-37761840D02*
X38476190Y-38047554D01*
X38476190Y-38047554D02*
X38723809Y-38047554D01*
X45227149Y-39095238D02*
X45227149Y-39000000D01*
X45227149Y-39000000D02*
X45250959Y-38952381D01*
X45250959Y-38952381D02*
X45298578Y-38904762D01*
X45298578Y-38904762D02*
X45393816Y-38880952D01*
X45393816Y-38880952D02*
X45560482Y-38880952D01*
X45560482Y-38880952D02*
X45655720Y-38904762D01*
X45655720Y-38904762D02*
X45703340Y-38952381D01*
X45703340Y-38952381D02*
X45727149Y-39000000D01*
X45727149Y-39000000D02*
X45727149Y-39095238D01*
X45727149Y-39095238D02*
X45703340Y-39142857D01*
X45703340Y-39142857D02*
X45655720Y-39190476D01*
X45655720Y-39190476D02*
X45560482Y-39214285D01*
X45560482Y-39214285D02*
X45393816Y-39214285D01*
X45393816Y-39214285D02*
X45298578Y-39190476D01*
X45298578Y-39190476D02*
X45250959Y-39142857D01*
X45250959Y-39142857D02*
X45227149Y-39095238D01*
X45727149Y-38666666D02*
X45227149Y-38666666D01*
X45227149Y-38666666D02*
X45227149Y-38476190D01*
X45227149Y-38476190D02*
X45250959Y-38428571D01*
X45250959Y-38428571D02*
X45274768Y-38404761D01*
X45274768Y-38404761D02*
X45322387Y-38380952D01*
X45322387Y-38380952D02*
X45393816Y-38380952D01*
X45393816Y-38380952D02*
X45441435Y-38404761D01*
X45441435Y-38404761D02*
X45465244Y-38428571D01*
X45465244Y-38428571D02*
X45489054Y-38476190D01*
X45489054Y-38476190D02*
X45489054Y-38666666D01*
X45536673Y-38166666D02*
X45536673Y-37785714D01*
X45584292Y-37571427D02*
X45584292Y-37333332D01*
X45727149Y-37619046D02*
X45227149Y-37452380D01*
X45227149Y-37452380D02*
X45727149Y-37285713D01*
X45727149Y-37119047D02*
X45227149Y-37119047D01*
X45227149Y-37119047D02*
X45584292Y-36952380D01*
X45584292Y-36952380D02*
X45227149Y-36785714D01*
X45227149Y-36785714D02*
X45727149Y-36785714D01*
X45727149Y-36547618D02*
X45227149Y-36547618D01*
X45227149Y-36547618D02*
X45227149Y-36357142D01*
X45227149Y-36357142D02*
X45250959Y-36309523D01*
X45250959Y-36309523D02*
X45274768Y-36285713D01*
X45274768Y-36285713D02*
X45322387Y-36261904D01*
X45322387Y-36261904D02*
X45393816Y-36261904D01*
X45393816Y-36261904D02*
X45441435Y-36285713D01*
X45441435Y-36285713D02*
X45465244Y-36309523D01*
X45465244Y-36309523D02*
X45489054Y-36357142D01*
X45489054Y-36357142D02*
X45489054Y-36547618D01*
X45727149Y-35785713D02*
X45727149Y-36071427D01*
X45727149Y-35928570D02*
X45227149Y-35928570D01*
X45227149Y-35928570D02*
X45298578Y-35976189D01*
X45298578Y-35976189D02*
X45346197Y-36023808D01*
X45346197Y-36023808D02*
X45370006Y-36071427D01*
X37880887Y-52238094D02*
X37690411Y-52371427D01*
X37880887Y-52466665D02*
X37480887Y-52466665D01*
X37480887Y-52466665D02*
X37480887Y-52314284D01*
X37480887Y-52314284D02*
X37499935Y-52276189D01*
X37499935Y-52276189D02*
X37518982Y-52257142D01*
X37518982Y-52257142D02*
X37557078Y-52238094D01*
X37557078Y-52238094D02*
X37614220Y-52238094D01*
X37614220Y-52238094D02*
X37652316Y-52257142D01*
X37652316Y-52257142D02*
X37671363Y-52276189D01*
X37671363Y-52276189D02*
X37690411Y-52314284D01*
X37690411Y-52314284D02*
X37690411Y-52466665D01*
X37480887Y-52123808D02*
X37880887Y-51990475D01*
X37880887Y-51990475D02*
X37480887Y-51857142D01*
X37518982Y-51742856D02*
X37499935Y-51723808D01*
X37499935Y-51723808D02*
X37480887Y-51685713D01*
X37480887Y-51685713D02*
X37480887Y-51590475D01*
X37480887Y-51590475D02*
X37499935Y-51552380D01*
X37499935Y-51552380D02*
X37518982Y-51533332D01*
X37518982Y-51533332D02*
X37557078Y-51514285D01*
X37557078Y-51514285D02*
X37595173Y-51514285D01*
X37595173Y-51514285D02*
X37652316Y-51533332D01*
X37652316Y-51533332D02*
X37880887Y-51761904D01*
X37880887Y-51761904D02*
X37880887Y-51514285D01*
X38655887Y-32891666D02*
X38465411Y-33024999D01*
X38655887Y-33120237D02*
X38255887Y-33120237D01*
X38255887Y-33120237D02*
X38255887Y-32967856D01*
X38255887Y-32967856D02*
X38274935Y-32929761D01*
X38274935Y-32929761D02*
X38293982Y-32910714D01*
X38293982Y-32910714D02*
X38332078Y-32891666D01*
X38332078Y-32891666D02*
X38389220Y-32891666D01*
X38389220Y-32891666D02*
X38427316Y-32910714D01*
X38427316Y-32910714D02*
X38446363Y-32929761D01*
X38446363Y-32929761D02*
X38465411Y-32967856D01*
X38465411Y-32967856D02*
X38465411Y-33120237D01*
X38255887Y-32758333D02*
X38255887Y-32510714D01*
X38255887Y-32510714D02*
X38408268Y-32644047D01*
X38408268Y-32644047D02*
X38408268Y-32586904D01*
X38408268Y-32586904D02*
X38427316Y-32548809D01*
X38427316Y-32548809D02*
X38446363Y-32529761D01*
X38446363Y-32529761D02*
X38484459Y-32510714D01*
X38484459Y-32510714D02*
X38579697Y-32510714D01*
X38579697Y-32510714D02*
X38617792Y-32529761D01*
X38617792Y-32529761D02*
X38636840Y-32548809D01*
X38636840Y-32548809D02*
X38655887Y-32586904D01*
X38655887Y-32586904D02*
X38655887Y-32701190D01*
X38655887Y-32701190D02*
X38636840Y-32739285D01*
X38636840Y-32739285D02*
X38617792Y-32758333D01*
X36077149Y-23604761D02*
X36077149Y-23842856D01*
X36077149Y-23842856D02*
X35577149Y-23842856D01*
X36077149Y-23438094D02*
X35577149Y-23438094D01*
X35600959Y-22938094D02*
X35577149Y-22985713D01*
X35577149Y-22985713D02*
X35577149Y-23057142D01*
X35577149Y-23057142D02*
X35600959Y-23128570D01*
X35600959Y-23128570D02*
X35648578Y-23176189D01*
X35648578Y-23176189D02*
X35696197Y-23199999D01*
X35696197Y-23199999D02*
X35791435Y-23223808D01*
X35791435Y-23223808D02*
X35862863Y-23223808D01*
X35862863Y-23223808D02*
X35958101Y-23199999D01*
X35958101Y-23199999D02*
X36005720Y-23176189D01*
X36005720Y-23176189D02*
X36053340Y-23128570D01*
X36053340Y-23128570D02*
X36077149Y-23057142D01*
X36077149Y-23057142D02*
X36077149Y-23009523D01*
X36077149Y-23009523D02*
X36053340Y-22938094D01*
X36053340Y-22938094D02*
X36029530Y-22914285D01*
X36029530Y-22914285D02*
X35862863Y-22914285D01*
X35862863Y-22914285D02*
X35862863Y-23009523D01*
X36077149Y-22699999D02*
X35577149Y-22699999D01*
X35815244Y-22699999D02*
X35815244Y-22414285D01*
X36077149Y-22414285D02*
X35577149Y-22414285D01*
X35577149Y-22247617D02*
X35577149Y-21961903D01*
X36077149Y-22104760D02*
X35577149Y-22104760D01*
X36077149Y-21533332D02*
X36077149Y-21819046D01*
X36077149Y-21676189D02*
X35577149Y-21676189D01*
X35577149Y-21676189D02*
X35648578Y-21723808D01*
X35648578Y-21723808D02*
X35696197Y-21771427D01*
X35696197Y-21771427D02*
X35720006Y-21819046D01*
X43129530Y-22733333D02*
X43153340Y-22757142D01*
X43153340Y-22757142D02*
X43177149Y-22828571D01*
X43177149Y-22828571D02*
X43177149Y-22876190D01*
X43177149Y-22876190D02*
X43153340Y-22947618D01*
X43153340Y-22947618D02*
X43105720Y-22995237D01*
X43105720Y-22995237D02*
X43058101Y-23019047D01*
X43058101Y-23019047D02*
X42962863Y-23042856D01*
X42962863Y-23042856D02*
X42891435Y-23042856D01*
X42891435Y-23042856D02*
X42796197Y-23019047D01*
X42796197Y-23019047D02*
X42748578Y-22995237D01*
X42748578Y-22995237D02*
X42700959Y-22947618D01*
X42700959Y-22947618D02*
X42677149Y-22876190D01*
X42677149Y-22876190D02*
X42677149Y-22828571D01*
X42677149Y-22828571D02*
X42700959Y-22757142D01*
X42700959Y-22757142D02*
X42724768Y-22733333D01*
X42843816Y-22304761D02*
X43177149Y-22304761D01*
X42653340Y-22423809D02*
X43010482Y-22542856D01*
X43010482Y-22542856D02*
X43010482Y-22233333D01*
X19966667Y-19511840D02*
X20023810Y-19530887D01*
X20023810Y-19530887D02*
X20119048Y-19530887D01*
X20119048Y-19530887D02*
X20157143Y-19511840D01*
X20157143Y-19511840D02*
X20176191Y-19492792D01*
X20176191Y-19492792D02*
X20195238Y-19454697D01*
X20195238Y-19454697D02*
X20195238Y-19416601D01*
X20195238Y-19416601D02*
X20176191Y-19378506D01*
X20176191Y-19378506D02*
X20157143Y-19359459D01*
X20157143Y-19359459D02*
X20119048Y-19340411D01*
X20119048Y-19340411D02*
X20042857Y-19321363D01*
X20042857Y-19321363D02*
X20004762Y-19302316D01*
X20004762Y-19302316D02*
X19985715Y-19283268D01*
X19985715Y-19283268D02*
X19966667Y-19245173D01*
X19966667Y-19245173D02*
X19966667Y-19207078D01*
X19966667Y-19207078D02*
X19985715Y-19168982D01*
X19985715Y-19168982D02*
X20004762Y-19149935D01*
X20004762Y-19149935D02*
X20042857Y-19130887D01*
X20042857Y-19130887D02*
X20138096Y-19130887D01*
X20138096Y-19130887D02*
X20195238Y-19149935D01*
X20328571Y-19130887D02*
X20423809Y-19530887D01*
X20423809Y-19530887D02*
X20500000Y-19245173D01*
X20500000Y-19245173D02*
X20576190Y-19530887D01*
X20576190Y-19530887D02*
X20671429Y-19130887D01*
X21033333Y-19530887D02*
X20804762Y-19530887D01*
X20919048Y-19530887D02*
X20919048Y-19130887D01*
X20919048Y-19130887D02*
X20880952Y-19188030D01*
X20880952Y-19188030D02*
X20842857Y-19226125D01*
X20842857Y-19226125D02*
X20804762Y-19245173D01*
X31242857Y-39642792D02*
X31223809Y-39661840D01*
X31223809Y-39661840D02*
X31166667Y-39680887D01*
X31166667Y-39680887D02*
X31128571Y-39680887D01*
X31128571Y-39680887D02*
X31071428Y-39661840D01*
X31071428Y-39661840D02*
X31033333Y-39623744D01*
X31033333Y-39623744D02*
X31014286Y-39585649D01*
X31014286Y-39585649D02*
X30995238Y-39509459D01*
X30995238Y-39509459D02*
X30995238Y-39452316D01*
X30995238Y-39452316D02*
X31014286Y-39376125D01*
X31014286Y-39376125D02*
X31033333Y-39338030D01*
X31033333Y-39338030D02*
X31071428Y-39299935D01*
X31071428Y-39299935D02*
X31128571Y-39280887D01*
X31128571Y-39280887D02*
X31166667Y-39280887D01*
X31166667Y-39280887D02*
X31223809Y-39299935D01*
X31223809Y-39299935D02*
X31242857Y-39318982D01*
X31623809Y-39680887D02*
X31395238Y-39680887D01*
X31509524Y-39680887D02*
X31509524Y-39280887D01*
X31509524Y-39280887D02*
X31471428Y-39338030D01*
X31471428Y-39338030D02*
X31433333Y-39376125D01*
X31433333Y-39376125D02*
X31395238Y-39395173D01*
X31776190Y-39318982D02*
X31795238Y-39299935D01*
X31795238Y-39299935D02*
X31833333Y-39280887D01*
X31833333Y-39280887D02*
X31928571Y-39280887D01*
X31928571Y-39280887D02*
X31966666Y-39299935D01*
X31966666Y-39299935D02*
X31985714Y-39318982D01*
X31985714Y-39318982D02*
X32004761Y-39357078D01*
X32004761Y-39357078D02*
X32004761Y-39395173D01*
X32004761Y-39395173D02*
X31985714Y-39452316D01*
X31985714Y-39452316D02*
X31757142Y-39680887D01*
X31757142Y-39680887D02*
X32004761Y-39680887D01*
X44642857Y-47680887D02*
X44509524Y-47490411D01*
X44414286Y-47680887D02*
X44414286Y-47280887D01*
X44414286Y-47280887D02*
X44566667Y-47280887D01*
X44566667Y-47280887D02*
X44604762Y-47299935D01*
X44604762Y-47299935D02*
X44623809Y-47318982D01*
X44623809Y-47318982D02*
X44642857Y-47357078D01*
X44642857Y-47357078D02*
X44642857Y-47414220D01*
X44642857Y-47414220D02*
X44623809Y-47452316D01*
X44623809Y-47452316D02*
X44604762Y-47471363D01*
X44604762Y-47471363D02*
X44566667Y-47490411D01*
X44566667Y-47490411D02*
X44414286Y-47490411D01*
X45023809Y-47680887D02*
X44795238Y-47680887D01*
X44909524Y-47680887D02*
X44909524Y-47280887D01*
X44909524Y-47280887D02*
X44871428Y-47338030D01*
X44871428Y-47338030D02*
X44833333Y-47376125D01*
X44833333Y-47376125D02*
X44795238Y-47395173D01*
X45366666Y-47280887D02*
X45290476Y-47280887D01*
X45290476Y-47280887D02*
X45252380Y-47299935D01*
X45252380Y-47299935D02*
X45233333Y-47318982D01*
X45233333Y-47318982D02*
X45195238Y-47376125D01*
X45195238Y-47376125D02*
X45176190Y-47452316D01*
X45176190Y-47452316D02*
X45176190Y-47604697D01*
X45176190Y-47604697D02*
X45195238Y-47642792D01*
X45195238Y-47642792D02*
X45214285Y-47661840D01*
X45214285Y-47661840D02*
X45252380Y-47680887D01*
X45252380Y-47680887D02*
X45328571Y-47680887D01*
X45328571Y-47680887D02*
X45366666Y-47661840D01*
X45366666Y-47661840D02*
X45385714Y-47642792D01*
X45385714Y-47642792D02*
X45404761Y-47604697D01*
X45404761Y-47604697D02*
X45404761Y-47509459D01*
X45404761Y-47509459D02*
X45385714Y-47471363D01*
X45385714Y-47471363D02*
X45366666Y-47452316D01*
X45366666Y-47452316D02*
X45328571Y-47433268D01*
X45328571Y-47433268D02*
X45252380Y-47433268D01*
X45252380Y-47433268D02*
X45214285Y-47452316D01*
X45214285Y-47452316D02*
X45195238Y-47471363D01*
X45195238Y-47471363D02*
X45176190Y-47509459D01*
X45604530Y-32796428D02*
X45628340Y-32820237D01*
X45628340Y-32820237D02*
X45652149Y-32891666D01*
X45652149Y-32891666D02*
X45652149Y-32939285D01*
X45652149Y-32939285D02*
X45628340Y-33010713D01*
X45628340Y-33010713D02*
X45580720Y-33058332D01*
X45580720Y-33058332D02*
X45533101Y-33082142D01*
X45533101Y-33082142D02*
X45437863Y-33105951D01*
X45437863Y-33105951D02*
X45366435Y-33105951D01*
X45366435Y-33105951D02*
X45271197Y-33082142D01*
X45271197Y-33082142D02*
X45223578Y-33058332D01*
X45223578Y-33058332D02*
X45175959Y-33010713D01*
X45175959Y-33010713D02*
X45152149Y-32939285D01*
X45152149Y-32939285D02*
X45152149Y-32891666D01*
X45152149Y-32891666D02*
X45175959Y-32820237D01*
X45175959Y-32820237D02*
X45199768Y-32796428D01*
X45652149Y-32320237D02*
X45652149Y-32605951D01*
X45652149Y-32463094D02*
X45152149Y-32463094D01*
X45152149Y-32463094D02*
X45223578Y-32510713D01*
X45223578Y-32510713D02*
X45271197Y-32558332D01*
X45271197Y-32558332D02*
X45295006Y-32605951D01*
X45652149Y-31844047D02*
X45652149Y-32129761D01*
X45652149Y-31986904D02*
X45152149Y-31986904D01*
X45152149Y-31986904D02*
X45223578Y-32034523D01*
X45223578Y-32034523D02*
X45271197Y-32082142D01*
X45271197Y-32082142D02*
X45295006Y-32129761D01*
X33980887Y-20795237D02*
X33580887Y-20795237D01*
X33580887Y-20795237D02*
X33580887Y-20699999D01*
X33580887Y-20699999D02*
X33599935Y-20642856D01*
X33599935Y-20642856D02*
X33638030Y-20604761D01*
X33638030Y-20604761D02*
X33676125Y-20585714D01*
X33676125Y-20585714D02*
X33752316Y-20566666D01*
X33752316Y-20566666D02*
X33809459Y-20566666D01*
X33809459Y-20566666D02*
X33885649Y-20585714D01*
X33885649Y-20585714D02*
X33923744Y-20604761D01*
X33923744Y-20604761D02*
X33961840Y-20642856D01*
X33961840Y-20642856D02*
X33980887Y-20699999D01*
X33980887Y-20699999D02*
X33980887Y-20795237D01*
X33618982Y-20414285D02*
X33599935Y-20395237D01*
X33599935Y-20395237D02*
X33580887Y-20357142D01*
X33580887Y-20357142D02*
X33580887Y-20261904D01*
X33580887Y-20261904D02*
X33599935Y-20223809D01*
X33599935Y-20223809D02*
X33618982Y-20204761D01*
X33618982Y-20204761D02*
X33657078Y-20185714D01*
X33657078Y-20185714D02*
X33695173Y-20185714D01*
X33695173Y-20185714D02*
X33752316Y-20204761D01*
X33752316Y-20204761D02*
X33980887Y-20433333D01*
X33980887Y-20433333D02*
X33980887Y-20185714D01*
X40661905Y-43980887D02*
X40528572Y-43790411D01*
X40433334Y-43980887D02*
X40433334Y-43580887D01*
X40433334Y-43580887D02*
X40585715Y-43580887D01*
X40585715Y-43580887D02*
X40623810Y-43599935D01*
X40623810Y-43599935D02*
X40642857Y-43618982D01*
X40642857Y-43618982D02*
X40661905Y-43657078D01*
X40661905Y-43657078D02*
X40661905Y-43714220D01*
X40661905Y-43714220D02*
X40642857Y-43752316D01*
X40642857Y-43752316D02*
X40623810Y-43771363D01*
X40623810Y-43771363D02*
X40585715Y-43790411D01*
X40585715Y-43790411D02*
X40433334Y-43790411D01*
X40776191Y-43580887D02*
X40909524Y-43980887D01*
X40909524Y-43980887D02*
X41042857Y-43580887D01*
X41138095Y-43580887D02*
X41385714Y-43580887D01*
X41385714Y-43580887D02*
X41252381Y-43733268D01*
X41252381Y-43733268D02*
X41309524Y-43733268D01*
X41309524Y-43733268D02*
X41347619Y-43752316D01*
X41347619Y-43752316D02*
X41366667Y-43771363D01*
X41366667Y-43771363D02*
X41385714Y-43809459D01*
X41385714Y-43809459D02*
X41385714Y-43904697D01*
X41385714Y-43904697D02*
X41366667Y-43942792D01*
X41366667Y-43942792D02*
X41347619Y-43961840D01*
X41347619Y-43961840D02*
X41309524Y-43980887D01*
X41309524Y-43980887D02*
X41195238Y-43980887D01*
X41195238Y-43980887D02*
X41157143Y-43961840D01*
X41157143Y-43961840D02*
X41138095Y-43942792D01*
X39242792Y-46166666D02*
X39261840Y-46185714D01*
X39261840Y-46185714D02*
X39280887Y-46242856D01*
X39280887Y-46242856D02*
X39280887Y-46280952D01*
X39280887Y-46280952D02*
X39261840Y-46338095D01*
X39261840Y-46338095D02*
X39223744Y-46376190D01*
X39223744Y-46376190D02*
X39185649Y-46395237D01*
X39185649Y-46395237D02*
X39109459Y-46414285D01*
X39109459Y-46414285D02*
X39052316Y-46414285D01*
X39052316Y-46414285D02*
X38976125Y-46395237D01*
X38976125Y-46395237D02*
X38938030Y-46376190D01*
X38938030Y-46376190D02*
X38899935Y-46338095D01*
X38899935Y-46338095D02*
X38880887Y-46280952D01*
X38880887Y-46280952D02*
X38880887Y-46242856D01*
X38880887Y-46242856D02*
X38899935Y-46185714D01*
X38899935Y-46185714D02*
X38918982Y-46166666D01*
X38880887Y-46033333D02*
X38880887Y-45766666D01*
X38880887Y-45766666D02*
X39280887Y-45938095D01*
X34480887Y-24166666D02*
X34290411Y-24299999D01*
X34480887Y-24395237D02*
X34080887Y-24395237D01*
X34080887Y-24395237D02*
X34080887Y-24242856D01*
X34080887Y-24242856D02*
X34099935Y-24204761D01*
X34099935Y-24204761D02*
X34118982Y-24185714D01*
X34118982Y-24185714D02*
X34157078Y-24166666D01*
X34157078Y-24166666D02*
X34214220Y-24166666D01*
X34214220Y-24166666D02*
X34252316Y-24185714D01*
X34252316Y-24185714D02*
X34271363Y-24204761D01*
X34271363Y-24204761D02*
X34290411Y-24242856D01*
X34290411Y-24242856D02*
X34290411Y-24395237D01*
X34080887Y-24033333D02*
X34080887Y-23766666D01*
X34080887Y-23766666D02*
X34480887Y-23938095D01*
X45942792Y-51666666D02*
X45961840Y-51685714D01*
X45961840Y-51685714D02*
X45980887Y-51742856D01*
X45980887Y-51742856D02*
X45980887Y-51780952D01*
X45980887Y-51780952D02*
X45961840Y-51838095D01*
X45961840Y-51838095D02*
X45923744Y-51876190D01*
X45923744Y-51876190D02*
X45885649Y-51895237D01*
X45885649Y-51895237D02*
X45809459Y-51914285D01*
X45809459Y-51914285D02*
X45752316Y-51914285D01*
X45752316Y-51914285D02*
X45676125Y-51895237D01*
X45676125Y-51895237D02*
X45638030Y-51876190D01*
X45638030Y-51876190D02*
X45599935Y-51838095D01*
X45599935Y-51838095D02*
X45580887Y-51780952D01*
X45580887Y-51780952D02*
X45580887Y-51742856D01*
X45580887Y-51742856D02*
X45599935Y-51685714D01*
X45599935Y-51685714D02*
X45618982Y-51666666D01*
X45580887Y-51304761D02*
X45580887Y-51495237D01*
X45580887Y-51495237D02*
X45771363Y-51514285D01*
X45771363Y-51514285D02*
X45752316Y-51495237D01*
X45752316Y-51495237D02*
X45733268Y-51457142D01*
X45733268Y-51457142D02*
X45733268Y-51361904D01*
X45733268Y-51361904D02*
X45752316Y-51323809D01*
X45752316Y-51323809D02*
X45771363Y-51304761D01*
X45771363Y-51304761D02*
X45809459Y-51285714D01*
X45809459Y-51285714D02*
X45904697Y-51285714D01*
X45904697Y-51285714D02*
X45942792Y-51304761D01*
X45942792Y-51304761D02*
X45961840Y-51323809D01*
X45961840Y-51323809D02*
X45980887Y-51361904D01*
X45980887Y-51361904D02*
X45980887Y-51457142D01*
X45980887Y-51457142D02*
X45961840Y-51495237D01*
X45961840Y-51495237D02*
X45942792Y-51514285D01*
X45242792Y-35257142D02*
X45261840Y-35276190D01*
X45261840Y-35276190D02*
X45280887Y-35333332D01*
X45280887Y-35333332D02*
X45280887Y-35371428D01*
X45280887Y-35371428D02*
X45261840Y-35428571D01*
X45261840Y-35428571D02*
X45223744Y-35466666D01*
X45223744Y-35466666D02*
X45185649Y-35485713D01*
X45185649Y-35485713D02*
X45109459Y-35504761D01*
X45109459Y-35504761D02*
X45052316Y-35504761D01*
X45052316Y-35504761D02*
X44976125Y-35485713D01*
X44976125Y-35485713D02*
X44938030Y-35466666D01*
X44938030Y-35466666D02*
X44899935Y-35428571D01*
X44899935Y-35428571D02*
X44880887Y-35371428D01*
X44880887Y-35371428D02*
X44880887Y-35333332D01*
X44880887Y-35333332D02*
X44899935Y-35276190D01*
X44899935Y-35276190D02*
X44918982Y-35257142D01*
X45280887Y-34876190D02*
X45280887Y-35104761D01*
X45280887Y-34990475D02*
X44880887Y-34990475D01*
X44880887Y-34990475D02*
X44938030Y-35028571D01*
X44938030Y-35028571D02*
X44976125Y-35066666D01*
X44976125Y-35066666D02*
X44995173Y-35104761D01*
X44880887Y-34742857D02*
X44880887Y-34495238D01*
X44880887Y-34495238D02*
X45033268Y-34628571D01*
X45033268Y-34628571D02*
X45033268Y-34571428D01*
X45033268Y-34571428D02*
X45052316Y-34533333D01*
X45052316Y-34533333D02*
X45071363Y-34514285D01*
X45071363Y-34514285D02*
X45109459Y-34495238D01*
X45109459Y-34495238D02*
X45204697Y-34495238D01*
X45204697Y-34495238D02*
X45242792Y-34514285D01*
X45242792Y-34514285D02*
X45261840Y-34533333D01*
X45261840Y-34533333D02*
X45280887Y-34571428D01*
X45280887Y-34571428D02*
X45280887Y-34685714D01*
X45280887Y-34685714D02*
X45261840Y-34723809D01*
X45261840Y-34723809D02*
X45242792Y-34742857D01*
D11*
%TO.C,R12*%
X42122500Y-45545276D02*
X42122500Y-46054724D01*
X41077500Y-45545276D02*
X41077500Y-46054724D01*
%TO.C,ACCEL1*%
X42160000Y-26990000D02*
X43210000Y-26990000D01*
X41040000Y-32210000D02*
X39990000Y-32210000D01*
X41040000Y-26990000D02*
X39990000Y-26990000D01*
%TO.C,PWR1*%
X23210000Y-39515000D02*
X23210000Y-41315000D01*
X21760000Y-39515000D02*
X23210000Y-39515000D01*
X18940000Y-40785000D02*
X18940000Y-44215000D01*
X23210000Y-41315000D02*
X24200000Y-41315000D01*
X23210000Y-45485000D02*
X23210000Y-43685000D01*
X21760000Y-45485000D02*
X23210000Y-45485000D01*
%TO.C,LED_OUT1*%
X23890000Y-47790000D02*
X25690000Y-47790000D01*
X23890000Y-49240000D02*
X23890000Y-47790000D01*
X25160000Y-52060000D02*
X29840000Y-52060000D01*
X25690000Y-47790000D02*
X25690000Y-46800000D01*
X31110000Y-47790000D02*
X29310000Y-47790000D01*
X31110000Y-49240000D02*
X31110000Y-47790000D01*
%TO.C,REG1*%
X28500000Y-44060000D02*
X30300000Y-44060000D01*
X28500000Y-44060000D02*
X27700000Y-44060000D01*
X28500000Y-40940000D02*
X29300000Y-40940000D01*
X28500000Y-40940000D02*
X27700000Y-40940000D01*
%TO.C,MCU1*%
X18499000Y-26793000D02*
X20023000Y-26793000D01*
X20023000Y-26158000D02*
X20912000Y-26158000D01*
X20023000Y-26793000D02*
X20023000Y-26158000D01*
X23071000Y-37207000D02*
X18499000Y-37207000D01*
X32469000Y-26793000D02*
X32723000Y-26793000D01*
X32723000Y-26793000D02*
X32723000Y-27682000D01*
X32723000Y-37207000D02*
X32469000Y-37207000D01*
X32723000Y-37207000D02*
X32723000Y-36318000D01*
%TO.C,R13*%
X34554724Y-42597500D02*
X34045276Y-42597500D01*
X34554724Y-41552500D02*
X34045276Y-41552500D01*
%TO.C,C6*%
X37346267Y-21310000D02*
X37053733Y-21310000D01*
X37346267Y-20290000D02*
X37053733Y-20290000D01*
%TO.C,R2*%
X20245276Y-49402500D02*
X20754724Y-49402500D01*
X20245276Y-50447500D02*
X20754724Y-50447500D01*
%TO.C,R1*%
X20754724Y-48922500D02*
X20245276Y-48922500D01*
X20754724Y-47877500D02*
X20245276Y-47877500D01*
%TO.C,C1*%
X43910000Y-45353733D02*
X43910000Y-45646267D01*
X42890000Y-45353733D02*
X42890000Y-45646267D01*
D12*
%TO.C,MIC1*%
X42096819Y-50828182D02*
X44846819Y-50828182D01*
X42096819Y-50828182D02*
X42096819Y-48978182D01*
X44846819Y-50828182D02*
X44846819Y-48978182D01*
X42096819Y-48978182D02*
X44846819Y-48978182D01*
D11*
%TO.C,R5*%
X33722500Y-23345276D02*
X33722500Y-23854724D01*
X32677500Y-23345276D02*
X32677500Y-23854724D01*
%TO.C,TEMP1*%
X41510000Y-25075000D02*
X41510000Y-23575000D01*
X39790000Y-24325000D02*
X39790000Y-23575000D01*
%TO.C,R4*%
X37797500Y-32070276D02*
X37797500Y-32579724D01*
X36752500Y-32070276D02*
X36752500Y-32579724D01*
%TO.C,D1*%
X35985000Y-44435000D02*
X35985000Y-42965000D01*
X35985000Y-42965000D02*
X33525000Y-42965000D01*
X33525000Y-44435000D02*
X35985000Y-44435000D01*
%TO.C,R6*%
X30722500Y-23345276D02*
X30722500Y-23854724D01*
X29677500Y-23345276D02*
X29677500Y-23854724D01*
%TO.C,C2*%
X37346267Y-41010000D02*
X37053733Y-41010000D01*
X37346267Y-39990000D02*
X37053733Y-39990000D01*
%TO.C,C10*%
X43503733Y-25240000D02*
X43796267Y-25240000D01*
X43503733Y-26260000D02*
X43796267Y-26260000D01*
%TO.C,C8*%
X36671267Y-35460000D02*
X36378733Y-35460000D01*
X36671267Y-34440000D02*
X36378733Y-34440000D01*
%TO.C,R15*%
X37127500Y-47454724D02*
X37127500Y-46945276D01*
X38172500Y-47454724D02*
X38172500Y-46945276D01*
%TO.C,C9*%
X35346267Y-37910000D02*
X35053733Y-37910000D01*
X35346267Y-36890000D02*
X35053733Y-36890000D01*
%TO.C,SW2*%
X28800000Y-21200000D02*
X28800000Y-21300000D01*
X28800000Y-19700000D02*
X24400000Y-19700000D01*
X24400000Y-22800000D02*
X28800000Y-22800000D01*
X24400000Y-21200000D02*
X24400000Y-21300000D01*
%TO.C,C14*%
X36610000Y-47053733D02*
X36610000Y-47346267D01*
X35590000Y-47053733D02*
X35590000Y-47346267D01*
%TO.C,C3*%
X32153733Y-40040000D02*
X32446267Y-40040000D01*
X32153733Y-41060000D02*
X32446267Y-41060000D01*
%TO.C,R14*%
X37454724Y-39522500D02*
X36945276Y-39522500D01*
X37454724Y-38477500D02*
X36945276Y-38477500D01*
%TO.C,OP-AMP1*%
X43000000Y-35940000D02*
X41200000Y-35940000D01*
X43000000Y-35940000D02*
X43800000Y-35940000D01*
X43000000Y-39060000D02*
X42200000Y-39060000D01*
X43000000Y-39060000D02*
X43800000Y-39060000D01*
%TO.C,RV2*%
X32200000Y-49000000D02*
X32200000Y-49700000D01*
X32700000Y-50600000D02*
X32700000Y-51000000D01*
X32900000Y-49000000D02*
X32200000Y-49000000D01*
X33800000Y-49200000D02*
X36700000Y-49200000D01*
X33800000Y-52400000D02*
X36700000Y-52400000D01*
X36700000Y-49200000D02*
X36700000Y-49800000D01*
X36700000Y-52400000D02*
X36700000Y-51800000D01*
%TO.C,R3*%
X36297500Y-32070276D02*
X36297500Y-32579724D01*
X35252500Y-32070276D02*
X35252500Y-32579724D01*
D13*
%TO.C,LIGHT1*%
X38699000Y-22200000D02*
X38699000Y-24200000D01*
X36501000Y-22200000D02*
X36501000Y-24200000D01*
D11*
%TO.C,C4*%
X41096267Y-22760000D02*
X40803733Y-22760000D01*
X41096267Y-21740000D02*
X40803733Y-21740000D01*
%TO.C,SW1*%
X23150000Y-21200000D02*
X23150000Y-21300000D01*
X23150000Y-19700000D02*
X18750000Y-19700000D01*
X18750000Y-22800000D02*
X23150000Y-22800000D01*
X18750000Y-21200000D02*
X18750000Y-21300000D01*
%TO.C,C12*%
X33946267Y-39510000D02*
X33653733Y-39510000D01*
X33946267Y-38490000D02*
X33653733Y-38490000D01*
%TO.C,R16*%
X45422500Y-45245276D02*
X45422500Y-45754724D01*
X44377500Y-45245276D02*
X44377500Y-45754724D01*
%TO.C,C11*%
X43715000Y-32521267D02*
X43715000Y-32228733D01*
X44735000Y-32521267D02*
X44735000Y-32228733D01*
%TO.C,RV3*%
X40100000Y-39800000D02*
X40100000Y-40500000D01*
X40600000Y-41400000D02*
X40600000Y-41800000D01*
X40800000Y-39800000D02*
X40100000Y-39800000D01*
X41700000Y-40000000D02*
X44600000Y-40000000D01*
X41700000Y-43200000D02*
X44600000Y-43200000D01*
X44600000Y-40000000D02*
X44600000Y-40600000D01*
X44600000Y-43200000D02*
X44600000Y-42600000D01*
%TO.C,C7*%
X40610000Y-46653733D02*
X40610000Y-46946267D01*
X39590000Y-46653733D02*
X39590000Y-46946267D01*
%TO.C,R7*%
X31177500Y-23854724D02*
X31177500Y-23345276D01*
X32222500Y-23854724D02*
X32222500Y-23345276D01*
%TO.C,C5*%
X43908767Y-52110000D02*
X43616233Y-52110000D01*
X43908767Y-51090000D02*
X43616233Y-51090000D01*
%TO.C,C13*%
X42453733Y-34490000D02*
X42746267Y-34490000D01*
X42453733Y-35510000D02*
X42746267Y-35510000D01*
%TD*%
M02*
