%TF.GenerationSoftware,KiCad,Pcbnew,7.0.6-0*%
%TF.CreationDate,2023-08-07T16:34:56-06:00*%
%TF.ProjectId,VibeLight,56696265-4c69-4676-9874-2e6b69636164,rev?*%
%TF.SameCoordinates,Original*%
%TF.FileFunction,Paste,Top*%
%TF.FilePolarity,Positive*%
%FSLAX46Y46*%
G04 Gerber Fmt 4.6, Leading zero omitted, Abs format (unit mm)*
G04 Created by KiCad (PCBNEW 7.0.6-0) date 2023-08-07 16:34:56*
%MOMM*%
%LPD*%
G01*
G04 APERTURE LIST*
G04 Aperture macros list*
%AMRoundRect*
0 Rectangle with rounded corners*
0 $1 Rounding radius*
0 $2 $3 $4 $5 $6 $7 $8 $9 X,Y pos of 4 corners*
0 Add a 4 corners polygon primitive as box body*
4,1,4,$2,$3,$4,$5,$6,$7,$8,$9,$2,$3,0*
0 Add four circle primitives for the rounded corners*
1,1,$1+$1,$2,$3*
1,1,$1+$1,$4,$5*
1,1,$1+$1,$6,$7*
1,1,$1+$1,$8,$9*
0 Add four rect primitives between the rounded corners*
20,1,$1+$1,$2,$3,$4,$5,0*
20,1,$1+$1,$4,$5,$6,$7,0*
20,1,$1+$1,$6,$7,$8,$9,0*
20,1,$1+$1,$8,$9,$2,$3,0*%
%AMFreePoly0*
4,1,53,0.173165,1.324926,0.326403,1.271305,0.463867,1.184931,0.578665,1.070133,0.665039,0.932669,0.718660,0.779431,0.736837,0.618103,0.718660,0.456775,0.665039,0.303537,0.578665,0.166073,0.463867,0.051275,0.326403,-0.035099,0.173165,-0.088720,0.011837,-0.106897,-0.149491,-0.088720,-0.302729,-0.035099,-0.440193,0.051275,-0.554991,0.166073,-0.641365,0.303537,-0.694986,0.456775,
-0.713163,0.618103,-0.468048,0.618103,-0.448609,0.482904,-0.391868,0.358658,-0.302421,0.255430,-0.187514,0.181584,-0.056458,0.143103,0.080132,0.143103,0.211188,0.181584,0.326095,0.255430,0.415542,0.358658,0.472283,0.482904,0.491722,0.618103,0.472283,0.753302,0.415542,0.877548,0.326095,0.980776,0.211188,1.054622,0.080132,1.093103,-0.056458,1.093103,-0.187514,1.054622,
-0.302421,0.980776,-0.391868,0.877548,-0.448609,0.753302,-0.468048,0.618103,-0.713163,0.618103,-0.694986,0.779431,-0.641365,0.932669,-0.554991,1.070133,-0.440193,1.184931,-0.302729,1.271305,-0.149491,1.324926,0.011837,1.343103,0.173165,1.324926,0.173165,1.324926,$1*%
G04 Aperture macros list end*
%ADD10C,0.200000*%
%ADD11C,0.010000*%
%ADD12RoundRect,0.237500X-0.237500X0.250000X-0.237500X-0.250000X0.237500X-0.250000X0.237500X0.250000X0*%
%ADD13RoundRect,0.150000X0.325000X0.150000X-0.325000X0.150000X-0.325000X-0.150000X0.325000X-0.150000X0*%
%ADD14RoundRect,0.150000X0.150000X0.325000X-0.150000X0.325000X-0.150000X-0.325000X0.150000X-0.325000X0*%
%ADD15RoundRect,0.150000X-0.700000X0.150000X-0.700000X-0.150000X0.700000X-0.150000X0.700000X0.150000X0*%
%ADD16RoundRect,0.250000X-1.100000X0.250000X-1.100000X-0.250000X1.100000X-0.250000X1.100000X0.250000X0*%
%ADD17RoundRect,0.150000X-0.150000X-0.700000X0.150000X-0.700000X0.150000X0.700000X-0.150000X0.700000X0*%
%ADD18RoundRect,0.250000X-0.250000X-1.100000X0.250000X-1.100000X0.250000X1.100000X-0.250000X1.100000X0*%
%ADD19RoundRect,0.150000X0.512500X0.150000X-0.512500X0.150000X-0.512500X-0.150000X0.512500X-0.150000X0*%
%ADD20R,0.500000X1.200000*%
%ADD21R,1.200000X0.500000*%
%ADD22RoundRect,0.237500X0.250000X0.237500X-0.250000X0.237500X-0.250000X-0.237500X0.250000X-0.237500X0*%
%ADD23RoundRect,0.237500X0.300000X0.237500X-0.300000X0.237500X-0.300000X-0.237500X0.300000X-0.237500X0*%
%ADD24RoundRect,0.237500X-0.250000X-0.237500X0.250000X-0.237500X0.250000X0.237500X-0.250000X0.237500X0*%
%ADD25RoundRect,0.237500X-0.237500X0.300000X-0.237500X-0.300000X0.237500X-0.300000X0.237500X0.300000X0*%
%ADD26FreePoly0,90.000000*%
%ADD27R,0.350000X0.650000*%
%ADD28R,0.300000X0.500000*%
%ADD29RoundRect,0.237500X0.287500X0.237500X-0.287500X0.237500X-0.287500X-0.237500X0.287500X-0.237500X0*%
%ADD30RoundRect,0.237500X-0.300000X-0.237500X0.300000X-0.237500X0.300000X0.237500X-0.300000X0.237500X0*%
%ADD31RoundRect,0.237500X0.237500X-0.250000X0.237500X0.250000X-0.237500X0.250000X-0.237500X-0.250000X0*%
%ADD32R,0.900000X1.000000*%
%ADD33RoundRect,0.150000X-0.512500X-0.150000X0.512500X-0.150000X0.512500X0.150000X-0.512500X0.150000X0*%
%ADD34R,1.200000X1.200000*%
%ADD35R,1.500000X1.600000*%
%ADD36RoundRect,0.008100X-0.126900X0.361900X-0.126900X-0.361900X0.126900X-0.361900X0.126900X0.361900X0*%
%ADD37RoundRect,0.237500X0.237500X-0.300000X0.237500X0.300000X-0.237500X0.300000X-0.237500X-0.300000X0*%
%ADD38R,0.500000X0.400000*%
G04 APERTURE END LIST*
D10*
%TO.C,MIC1*%
X43571819Y-50353182D02*
G75*
G03*
X44371819Y-50353182I400000J436521D01*
G01*
X43521819Y-49503182D02*
G75*
G03*
X43521819Y-50303182I436521J-400000D01*
G01*
X44421819Y-50303182D02*
G75*
G03*
X44421819Y-49503182I-436521J400000D01*
G01*
X44371819Y-49453182D02*
G75*
G03*
X43571819Y-49453182I-400000J-436520D01*
G01*
D11*
X42551819Y-50683182D02*
X42241819Y-50683182D01*
X42241819Y-50073182D01*
X42551819Y-50073182D01*
X42551819Y-50683182D01*
G36*
X42551819Y-50683182D02*
G01*
X42241819Y-50683182D01*
X42241819Y-50073182D01*
X42551819Y-50073182D01*
X42551819Y-50683182D01*
G37*
X42551819Y-49733182D02*
X42241819Y-49733182D01*
X42241819Y-49123182D01*
X42551819Y-49123182D01*
X42551819Y-49733182D01*
G36*
X42551819Y-49733182D02*
G01*
X42241819Y-49733182D01*
X42241819Y-49123182D01*
X42551819Y-49123182D01*
X42551819Y-49733182D01*
G37*
%TO.C,LIGHT1*%
X38030000Y-23410000D02*
X37170000Y-23410000D01*
X37170000Y-22990000D01*
X38030000Y-22990000D01*
X38030000Y-23410000D01*
G36*
X38030000Y-23410000D02*
G01*
X37170000Y-23410000D01*
X37170000Y-22990000D01*
X38030000Y-22990000D01*
X38030000Y-23410000D01*
G37*
%TD*%
D12*
%TO.C,R12*%
X41600000Y-44887500D03*
X41600000Y-46712500D03*
%TD*%
D13*
%TO.C,ACCEL1*%
X42600000Y-31600000D03*
X42600000Y-30800000D03*
X42600000Y-30000000D03*
X42600000Y-29200000D03*
X42600000Y-28400000D03*
X42600000Y-27600000D03*
D14*
X41600000Y-27600000D03*
D13*
X40600000Y-27600000D03*
X40600000Y-28400000D03*
X40600000Y-29200000D03*
X40600000Y-30000000D03*
X40600000Y-30800000D03*
X40600000Y-31600000D03*
D14*
X41600000Y-31600000D03*
%TD*%
D15*
%TO.C,PWR1*%
X23350000Y-41875000D03*
X23350000Y-43125000D03*
D16*
X20150000Y-40025000D03*
X20150000Y-44975000D03*
%TD*%
D17*
%TO.C,LED_OUT1*%
X26250000Y-47650000D03*
X27500000Y-47650000D03*
X28750000Y-47650000D03*
D18*
X24400000Y-50850000D03*
X30600000Y-50850000D03*
%TD*%
D19*
%TO.C,REG1*%
X29637500Y-43450000D03*
X29637500Y-42500000D03*
X29637500Y-41550000D03*
X27362500Y-41550000D03*
X27362500Y-43450000D03*
%TD*%
D20*
%TO.C,MCU1*%
X20650000Y-27100000D03*
X21400000Y-27100000D03*
X22150000Y-27100000D03*
X22900000Y-27100000D03*
X23650000Y-27100000D03*
X24400000Y-27100000D03*
X25150000Y-27100000D03*
X25900000Y-27100000D03*
X26650000Y-27100000D03*
X27400000Y-27100000D03*
X28150000Y-27100000D03*
X28900000Y-27100000D03*
X29650000Y-27100000D03*
X30400000Y-27100000D03*
X31150000Y-27100000D03*
X31900000Y-27100000D03*
D21*
X32350000Y-28250000D03*
X32350000Y-29000000D03*
X32350000Y-29750000D03*
X32350000Y-30500000D03*
X32350000Y-31250000D03*
X32350000Y-32000000D03*
X32350000Y-32750000D03*
X32350000Y-33500000D03*
X32350000Y-34250000D03*
X32350000Y-35000000D03*
X32350000Y-35750000D03*
D20*
X31900000Y-36900000D03*
X31150000Y-36900000D03*
X30400000Y-36900000D03*
X29650000Y-36900000D03*
X28900000Y-36900000D03*
X28150000Y-36900000D03*
X27400000Y-36900000D03*
X26650000Y-36900000D03*
X25900000Y-36900000D03*
X25150000Y-36900000D03*
X24400000Y-36900000D03*
X23650000Y-36900000D03*
%TD*%
D22*
%TO.C,R13*%
X35212500Y-42075000D03*
X33387500Y-42075000D03*
%TD*%
D23*
%TO.C,C6*%
X38062500Y-20800000D03*
X36337500Y-20800000D03*
%TD*%
D24*
%TO.C,R2*%
X19587500Y-49925000D03*
X21412500Y-49925000D03*
%TD*%
D22*
%TO.C,R1*%
X21412500Y-48400000D03*
X19587500Y-48400000D03*
%TD*%
D25*
%TO.C,C1*%
X43400000Y-44637500D03*
X43400000Y-46362500D03*
%TD*%
D26*
%TO.C,MIC1*%
X44589922Y-49915019D03*
D27*
X42396819Y-49428182D03*
X42396819Y-50378182D03*
%TD*%
D12*
%TO.C,R5*%
X33200000Y-22687500D03*
X33200000Y-24512500D03*
%TD*%
D28*
%TO.C,TEMP1*%
X40250000Y-25025000D03*
X41050000Y-25025000D03*
X41050000Y-23625000D03*
X40250000Y-23625000D03*
%TD*%
D12*
%TO.C,R4*%
X37275000Y-31412500D03*
X37275000Y-33237500D03*
%TD*%
D29*
%TO.C,D1*%
X35200000Y-43700000D03*
X33450000Y-43700000D03*
%TD*%
D12*
%TO.C,R6*%
X30200000Y-22687500D03*
X30200000Y-24512500D03*
%TD*%
D23*
%TO.C,C2*%
X38062500Y-40500000D03*
X36337500Y-40500000D03*
%TD*%
D30*
%TO.C,C10*%
X42787500Y-25750000D03*
X44512500Y-25750000D03*
%TD*%
D23*
%TO.C,C8*%
X37387500Y-34950000D03*
X35662500Y-34950000D03*
%TD*%
D31*
%TO.C,R15*%
X37650000Y-48112500D03*
X37650000Y-46287500D03*
%TD*%
D23*
%TO.C,C9*%
X36062500Y-37400000D03*
X34337500Y-37400000D03*
%TD*%
D32*
%TO.C,SW2*%
X28650000Y-22050000D03*
X24550000Y-22050000D03*
X28650000Y-20450000D03*
X24550000Y-20450000D03*
%TD*%
D25*
%TO.C,C14*%
X36100000Y-46337500D03*
X36100000Y-48062500D03*
%TD*%
D30*
%TO.C,C3*%
X31437500Y-40550000D03*
X33162500Y-40550000D03*
%TD*%
D22*
%TO.C,R14*%
X38112500Y-39000000D03*
X36287500Y-39000000D03*
%TD*%
D33*
%TO.C,OP-AMP1*%
X41862500Y-36550000D03*
X41862500Y-37500000D03*
X41862500Y-38450000D03*
X44137500Y-38450000D03*
X44137500Y-36550000D03*
%TD*%
D34*
%TO.C,RV2*%
X33000000Y-49800000D03*
D35*
X36250000Y-50800000D03*
D34*
X33000000Y-51800000D03*
%TD*%
D12*
%TO.C,R3*%
X35775000Y-31412500D03*
X35775000Y-33237500D03*
%TD*%
D36*
%TO.C,LIGHT1*%
X38250000Y-22205000D03*
X37600000Y-22205000D03*
X36950000Y-22205000D03*
X36950000Y-24195000D03*
X37600000Y-24195000D03*
X38250000Y-24195000D03*
%TD*%
D23*
%TO.C,C4*%
X41812500Y-22250000D03*
X40087500Y-22250000D03*
%TD*%
D32*
%TO.C,SW1*%
X23000000Y-22050000D03*
X18900000Y-22050000D03*
X23000000Y-20450000D03*
X18900000Y-20450000D03*
%TD*%
D23*
%TO.C,C12*%
X34662500Y-39000000D03*
X32937500Y-39000000D03*
%TD*%
D12*
%TO.C,R16*%
X44900000Y-44587500D03*
X44900000Y-46412500D03*
%TD*%
D37*
%TO.C,C11*%
X44225000Y-33237500D03*
X44225000Y-31512500D03*
%TD*%
D38*
%TO.C,D2*%
X32900000Y-20850000D03*
X31700000Y-20850000D03*
X32900000Y-20150000D03*
X31700000Y-20150000D03*
%TD*%
D34*
%TO.C,RV3*%
X40900000Y-40600000D03*
D35*
X44150000Y-41600000D03*
D34*
X40900000Y-42600000D03*
%TD*%
D25*
%TO.C,C7*%
X40100000Y-45937500D03*
X40100000Y-47662500D03*
%TD*%
D31*
%TO.C,R7*%
X31700000Y-24512500D03*
X31700000Y-22687500D03*
%TD*%
D23*
%TO.C,C5*%
X44625000Y-51600000D03*
X42900000Y-51600000D03*
%TD*%
D30*
%TO.C,C13*%
X41737500Y-35000000D03*
X43462500Y-35000000D03*
%TD*%
M02*
