M48
; DRILL file {KiCad 7.0.6-0} date 2023 August 07, Monday 16:34:50
; FORMAT={-:-/ absolute / inch / decimal}
; #@! TF.CreationDate,2023-08-07T16:34:50-06:00
; #@! TF.GenerationSoftware,Kicad,Pcbnew,7.0.6-0
; #@! TF.FileFunction,MixedPlating,1,2
FMAT,2
INCH
; #@! TA.AperFunction,Plated,PTH,ViaDrill
T1C0.0157
; #@! TA.AperFunction,NonPlated,NPTH,ComponentDrill
T2C0.0236
; #@! TA.AperFunction,NonPlated,NPTH,ComponentDrill
T3C0.0390
%
G90
G05
T1
X0.7598Y-0.9587
X0.7894Y-1.6811
X0.8268Y-0.8031
X0.8839Y-2.0207
X0.9094Y-1.5157
X0.9646Y-1.0
X0.9646Y-1.5157
X0.9734Y-1.3071
X0.9764Y-1.2323
X1.0472Y-0.8071
X1.0787Y-1.5118
X1.0807Y-1.998
X1.0827Y-1.8012
X1.0856Y-1.3898
X1.1378Y-1.5157
X1.1693Y-1.5787
X1.1791Y-1.3878
X1.1988Y-1.1437
X1.2165Y-1.3445
X1.2205Y-1.8248
X1.2421Y-1.5133
X1.3041Y-1.0095
X1.3346Y-1.2283
X1.3346Y-1.2953
X1.3346Y-1.8031
X1.3583Y-1.2598
X1.3583Y-2.0295
X1.3602Y-1.0403
X1.3622Y-1.1969
X1.3661Y-0.8661
X1.374Y-1.1575
X1.378Y-1.5965
X1.4134Y-0.9528
X1.4291Y-1.6457
X1.4567Y-1.126
X1.4724Y-1.7028
X1.4764Y-1.4252
X1.5236Y-2.0197
X1.5295Y-1.8012
X1.5428Y-1.7254
X1.5472Y-0.9252
X1.5472Y-1.0787
X1.5512Y-1.1417
X1.5512Y-1.3307
X1.5866Y-2.0157
X1.5906Y-1.5157
X1.5955Y-1.0384
X1.5994Y-1.378
X1.6462Y-0.8189
X1.6693Y-1.6378
X1.7264Y-1.9006
X1.7411Y-1.185
X1.7461Y-0.9094
T2
X1.7312Y-1.9647
T3
X1.0446Y-1.3411
X1.0846Y-1.1411
X1.1246Y-1.3411
T0
M30
